<?xml version="1.0" encoding="utf-8"?>
<!-- Generator: Adobe Illustrator 26.5.3, SVG Export Plug-In . SVG Version: 6.00 Build 0)  -->
<svg version="1.1" id="Layer_1" xmlns="http://www.w3.org/2000/svg" xmlns:xlink="http://www.w3.org/1999/xlink" x="0px" y="0px"
	 viewBox="0 0 2000 2000" style="enable-background:new 0 0 2000 2000;" xml:space="preserve">
<g>
	<path d="M676.21,713.36c-1.33-0.1-2.04,0.51-2.28,4.46c-0.24,3.95-0.51,6.77-0.65,8.54c-0.14,1.77,2.52,2.96,4.9,0.17
		c2.38-2.79,2.99-3.91,3.2-6.84c0.2-2.93-1.53-2.18-1.84-0.37c-0.31,1.8-1.09,4.05-1.29,4.53c-0.2,0.48-2.93,0.75-2.59-1.57
		c0.34-2.31,0.99-2.99,1.23-5.68C677.13,713.91,677.47,713.23,676.21,713.36z"/>
	<path d="M677.92,706.28c-0.66-0.09-0.74,1.05-0.72,1.5c0.03,0.82,0.44,1.12,0.75,1.16c0.73,0.08,0.59-1.68,0.52-2.03
		c-0.04-0.21-0.12-0.45-0.31-0.55L677.92,706.28z"/>
	<path d="M688.27,704.16c-1.04,0.1-0.85,1.11-0.85,2.68c0,1.57,0.72,1.63-1.24,3.17c-1.96,1.53-2.94,1.96-2.91,2.94
		c0.03,0.98,1.99,0.42,1.31,4.18c-0.69,3.75-1.96,5.26-1.76,10.06c0.2,4.8,1.76,6.73,4.77,5.48c3-1.24,5.35-5.19,7.02-9.24
		c1.67-4.05,2.25-6.79,2.32-8.19c0.07-1.4-1.47-0.65-2.94,3.33c-1.47,3.98-3.95,7.87-5.45,9.4c-1.5,1.53-1.31-0.59-1.31-4.7
		s2.35-9.3,3.69-11.03c1.34-1.73,1.73-3.04,0.62-3.95c-1.11-0.91-1.11-0.69-1.67-2.25C689.31,704.45,688.43,704.06,688.27,704.16z"
		/>
	<path d="M727.44,712.94c-0.75-1.37,0.75-3.79,0.75-3.79s-0.13-0.88-1.89,0.13c-1.76,1.01-1.86,1.83-3.92,1.4
		c-2.06-0.42-5.45-0.36-6.4,1.7c-0.95,2.06-1.11,3.79-2.58,4.37c-1.47,0.59-1.24-3.66-0.69-5.62c0.55-1.96,0.91-4.96-1.27-5.84
		c-0.85,3.43-1.6,8.33-3.07,11.62s-3,4.15-3.92,5.68c-0.91,1.53-1.47,3.04-3.33,2.87c-1.86-0.16-1.01-1.18,0.75-3.13
		c1.76-1.96,3.1-5.16,3.04-8.39c-0.07-3.23-1.99-4.21-3.95-4.21c-0.59,0-1.47,0.01-1.9,0.5c-0.16,0.18-0.24,0.41-0.25,0.64
		c-0.03,0.46,0.2,0.97,0.52,1.26c0.6,0.54,1.54,0.64,2.31,0.64c1.5,0,1.4,1.44,0.49,3.79c-0.91,2.35-1.6,4.6-2.71,5.52
		c-1.11,0.91-2.94,1.4-3.36,3.46c-0.42,2.06,1.31,1.57,1.18,3c-0.13,1.44-0.16,1.83-1.21,4.99c-1.04,3.17,2.91,3.53,4.77-0.33
		c1.86-3.85,2.55-7.12,5.45-9.66c2.91-2.55,4.37-2.87,6.2-2.91c1.83-0.03,2.38,0.03,3.33-2.02c0.95-2.06,1.53-4.21,2.58-4.28
		c1.04-0.07,2.35,2.09,4.02,3.33c1.67,1.24,3.2,1.6,5.97-0.75c2.78-2.35,2.94-3.59,2.94-3.59S728.19,714.31,727.44,712.94z
		 M725.34,715.83c-0.81,0-1.47-0.66-1.47-1.47c0-0.81,0.66-1.47,1.47-1.47s1.47,0.66,1.47,1.47
		C726.81,715.17,726.15,715.83,725.34,715.83z"/>
	<path d="M715.01,700.41c0,0.64-0.52,1.17-1.17,1.17s-1.17-0.52-1.17-1.17c0-0.64,0.52-1.17,1.17-1.17S715.01,699.77,715.01,700.41z
		"/>
	<path d="M736.36,706.05c0,0-4.15,1.01-4.64,2.96c-0.49,1.95,0.52,3.14,1.12,4.04c0.59,0.91,1.29,0.14,1.71-0.49
		c0.42-0.63,2.55-0.1,4.29,0.45c1.74,0.56,3.73-0.77,4.32-3.45c0.59-2.68,0.42-5.3,0.42-5.3s6.07-0.49,7.81,5.72
		c1.74,6.21,3.56,10.22,8.19,11.02c4.64,0.8,5.09,5.13,2.79,7.39c-2.96,0.7-10.11,2.09-11.99,0.59c1.33,2.3,3.8,2.48,6.24,2.09
		c2.44-0.38,3.56,0.21,3.63,1.12c0.07,0.91-1.6,1.29-2.96,1.99c-1.36,0.7-1.64,2.02-1.64,2.02s5.89,0.59,10.32-5.96
		c-2.2-0.42-2.82-0.73-2.82-0.73s2.34-2.27,2.48-3.07c0.14,2.2,0.66,2.89,0.66,2.89s2.34-1.57,2.41-5.37c0.07-3.8-1.64-4.29-5.4-4.5
		c-3.77-0.21-7.53-2.79-8.79-7.67c-1.26-4.88,0.63-10.08-2.58-13.39c-2.23,3.07-4.25,4.36-5.79,4.22c-1.53-0.14-4.08-3.8-4.53-4.95
		c-1.36,0-3.14,0.21-6.31-1.36c-3.17-1.57-13.25-6.45-29.81-6.8c-16.56-0.35-25.87,0.7-28.03,2.58c6.52,0.03,28.09-1.33,39.75,0.99
		s18.8,4.93,20.83,7.6c2.03,2.67,2.9,4.93,2.84,7.08s-0.64,2.96-2.61,3.25C736.28,711.32,736.33,707.92,736.36,706.05z"/>
	<path d="M747.52,717.58c0,0.86-1.44,1.57-3.21,1.57c-1.77,0-3.21-0.7-3.21-1.57c0-0.86,1.44-1.57,3.21-1.57
		C746.09,716.01,747.52,716.72,747.52,717.58z"/>
	<path d="M748.42,727.72c0,0.52-0.64,0.94-1.43,0.94c-0.79,0-1.43-0.42-1.43-0.94c0-0.52,0.64-0.94,1.43-0.94
		C747.78,726.78,748.42,727.2,748.42,727.72z"/>
	<path d="M726.37,723.94c-2.1,0.07-1.56,3.44-0.4,5.43c1.16,1.99,3.55,3.48,5.51,3.8c-2.25-2.39-3.8-5.69-4.06-7.21
		C727.16,724.45,726.69,723.83,726.37,723.94z"/>
	<path d="M740.48,738.14c-4.87-0.67-6.51-1.9-6.51-1.9s-6.51,4.05-8.61,3.33c0.46,1.79,2.46,3.33,2.46,3.33s-6.92-0.41-7.43,3.23
		c-0.51,3.64-1.84,7.99-2.05,11.94c-0.2,3.94,2.05,5.79-0.26,6.92c-2.31,1.13-3.38,0.72-4.46-3.74c-1.08-4.46-2.51-11.73-4.35-14.8
		c-1.84-3.07-3.38-2.77-6.56-1.38c-3.18,1.38-10.55,1.02-18.95-5.02c-8.4-6.04-13.17-13.32-15.83-16.91c-2.66-3.59,0-5.28,3.02-9.27
		c3.02-4,4.71-13.99,2.97-19.01c-1.74-5.02-10.66-4.3-15.78-2c-5.12,2.31-11.12,8.86-13.32,12.91c-2.2,4.05-6.68,8.02-8.72,11.21
		c-0.92,0.99-0.89,0.85-0.71,1.88c0.18,1.03,0.57,1.17,1.92-0.07c1.35-1.24,3.33-2.66,3.33-2.66s-0.46,2.13,1.17,5.43
		c1.63,3.3,4.33,5.18,7.66,3.9c3.33-1.28,4.26-7.17,1.49-10.32c-2.77-3.16-5.04-2.13-4.58-4.86c0.46-2.73,3.97-7.91,9.08-12.49
		c5.11-4.58,12.84-5.46,14.94-2.02c2.09,3.44,1.31,9.97-1.92,15.22c-3.23,5.25-7.24,7.56-7.24,7.56s1.28-11.81,1.21-14.94
		c-0.07-3.12-1.88-5.82-1.88-5.82s-1.45,4.97-3.65,17.17c-2.2,12.2-2.84,16.25-3.41,20.26c-0.57,4.01-0.5,5.64,0.96,6.32
		c1.45,0.67,1.63,0.74,1.63,0.74s1.67-6.03,2.77-11.92c1.1-5.89,1.45-9.19,1.45-9.19s1.42,0.43,2.59,2.55s2.59,4.47,7.66,10.75
		c5.07,6.28,9.48,9.21,19.31,13.51s14.6,3.53,16.29,3.28c1.69-0.26,4-0.15,4.46,3.64c0.46,3.79-0.26,7.58,1.49,9.84
		c1.74,2.25,1.69,3.48,5.17,3.89c3.48,0.41,4.76-1.49,4.3-3.94c-0.46-2.46-1.43-2.46-0.82-4.71c0.61-2.25,1.08-3.48,1.33-2.2
		s-0.15,3.59,0.31,4.82c0.46,1.23,0.82,0.51,2.41,2.82s1.9,4,5.17,3.02c3.28-0.97,3.23-2.51,2.41-5.38
		c-0.82-2.87-1.74-10.66-1.84-15.32c-0.1-4.66,4.51-6.4,9.99-6.3c5.48,0.1,11.94-0.67,13.52-5.28
		C748.68,738.19,745.35,738.8,740.48,738.14z M647.32,717.35c0.98,0.96,1.16,3.32-0.74,2.19c-0.7-0.42-1.29-1.17-1.12-2.03
		c0.04-0.2,0.12-0.34,0.23-0.44C646.1,716.69,646.89,716.93,647.32,717.35z M728.76,764.95c-0.91,0.4-1.56,0.33-3.33-2.06
		c-1.77-2.39-3.12-4.75-3.33-8.87c-0.08-1.55-0.03-3.52,1.36-4.51c0.63-0.45,1.5-0.77,2.33-0.8c0.8-0.03,1.58,0.2,2.1,0.85
		c0.6,0.75,0.64,1.67,0.61,2.58c-0.05,1.89,0.05,3.79,0.22,5.68c0.14,1.5,0.2,3.24,0.8,4.64
		C730.21,764.04,729.66,764.55,728.76,764.95z"/>
	<path d="M795.67,672.65c-0.75-3.39-8.5-6.55-18.74-5.8c-10.24,0.75-30.11,3.69-44.48,2.26c-14.38-1.43-36.28-1.88-63.67-0.68
		c-11.68,0.51-23.34,1.35-34.98,2.42c-4.85,0.45-9.7,0.9-14.53,1.49c-2.45,0.3-4.89,0.63-7.33,1.01c-0.96,0.15-2.66,0.16-3.57,0.62
		c-0.67,0.34-0.92,0.92-0.16,1.97c0.79,1.09,1.01,2.97,0.82,3.65c-0.19,0.68-2.21,11.67-2.78,16.53c-0.58,4.86-3.17,34.16-5,48.6
		c-1.83,14.44-3.29,17.91-4.23,22.89c-0.94,4.98-4.29,13.02,4.88,17.31c9.17,4.29,36.84,3.65,56.46,3.7
		c19.63,0.05,56.17,2.71,84.08,3.57c27.91,0.85,35.31,2.27,38.56-3.25c2.97-5.19,2.4-5.19,4.24-6.88c1.84-1.7,3.87-3.44,3.77-9.99
		c-0.09-6.55,1.23-23.05,1.46-30.26c0.24-7.21,0.98-35.22,1.43-47.11c0.45-11.89-0.08-10.24,1.66-14.07
		C795.29,676.79,796.42,676.04,795.67,672.65z M780.15,730.34c-2.62,23.23-5.23,33.86-5.73,39.75c-0.49,5.89-7.36,5.56-15.87,4.74
		c-8.51-0.82-46.95-3.11-86.86-3.11s-54.15,0.82-59.71,0c-5.56-0.82-2.78-3.6-2.62-9.32s1.96-56.44,2.45-66.09
		s-0.33-18.16-0.33-18.16s8.02,4.42,61.51,5.23c53.49,0.82,85.06,2.13,96.02,1.31c10.96-0.82,18.48-2.62,19.14,0.33
		C788.82,687.98,782.77,707.11,780.15,730.34z"/>
	<path d="M1610.79,826.03c-5.92-4.72-26.1-13.05-36.64-18.27c-10.54-5.22-50.29-24.7-66.26-36.24
		c-15.96-11.54-28.21-20.18-35.44-24.7c-7.23-4.52-9.64-3.61-12.45-1.1c-2.81,2.51-13.25,16.97-22.29,30.92
		c-9.04,13.95-30.42,46.28-30.42,46.28c-3.92,6.73-10.94,15.46-10.44,20.88c0.5,5.42,17.87,20.48,29.41,29.11
		c11.54,8.63,39.05,28.41,62.74,38.95c23.69,10.54,33.73,17.67,51,21.99c17.27,4.32,25.6,3.71,33.43-4.32
		c7.83-8.03,18.97-23.09,25.9-42.57c6.93-19.48,10.24-36.64,9.84-42.57c-0.4-5.92,0.2-6.93,2.61-9.14
		C1614.21,833.06,1616.72,830.75,1610.79,826.03z M1599.81,847.58c-2.84,7.07-11.54,26.41-20.88,42.58
		c-9.34,16.17-20.07,27.79-20.07,27.79s-52.69-24.4-68.23-32.09c-15.55-7.69-77.42-40.23-77.42-40.23s0,0,4.65-7.53
		c4.65-7.53,30.15-56.2,35.51-66.61s11.24-21.24,11.24-21.24c7.16,8.39,24.29,21.92,44.12,37.2c19.83,15.28,31.37,20.88,45.67,28.85
		c14.3,7.96,39.65,19.91,44.94,21.21S1602.65,840.51,1599.81,847.58z"/>
	<path d="M515.39,590.46c-3.66-0.09-2.39,11.81-2.3,13.51c0.41,7.47,3.86,18.23,3.78,24.88c-0.08,6.65-5.09,22.5-7.96,32.35
		c-2.87,9.85-5.09,11.74-0.57,17.16c4.52,5.42,9.36,0.99,11.74-1.64c2.38-2.63,12.07-12.81,14.12-29.07
		c2.05-16.26-0.74-26.44-5.17-38.51c-2.37-6.44-6.19-14.29-12.17-18.14C516.29,590.64,515.81,590.47,515.39,590.46z"/>
	<path d="M594.6,290.05c-1.15-0.04-2.37,0.23-3.47,0.51c-2.25,0.56-4.38,1.64-5.82,3.51c-1.88,2.44-2.31,5.68-2.26,8.67
		c0.17,9.76,1.57,15.31,6.45,19.85c4.88,4.54,10.54,6.84,16.6,6.39c6.06-0.45,8.19-3.87,9.14-7.29c0.95-3.42-1.18-6.45-4.88-7.8
		c-3.7-1.35-7.52-1.46-5.78-5.61c2.22-5.3,0.87-12.8-4-16.14c-1.63-1.12-3.54-1.84-5.51-2.06
		C594.92,290.07,594.76,290.06,594.6,290.05z"/>
	<path d="M661.29,282.27c-0.16,5.26,3.16,13.52,15.71,12.55c12.55-0.97,30.04-5.83,34.01-7.69c3.97-1.86,4.29-0.32,4.29-0.32
		s-6.8,8.02-8.26,13.6c-1.46,5.59-0.89,12.96,5.75,15.71c6.64,2.75,18.3-2.51,25.1-9.88c6.8-7.37,13.36-13.44,18.71-21.22
		c5.34-7.77,8.1-14.66,1.78-20.89c-6.32-6.24-10.53-9.88-22.51-4.94c-11.98,4.94-35.23,10.12-44.62,11.17
		C681.86,271.42,662.83,267.78,661.29,282.27z"/>
	<path d="M528.87,1426.89c1.99,2.39,8.64-1.6,13.43-3.32c4.79-1.73,22.2-13.16,29.64-32.03c7.44-18.88,5.98-41.07,5.98-44.53
		s-1.86-5.58-3.46-5.72c-1.6-0.13-2.13,0.8-2.66,8.51c-0.53,7.71-2.66,22.33-8.37,34.83c-5.72,12.49-17.15,21.67-22.6,26.85
		C535.38,1416.65,524.82,1420.83,528.87,1426.89z"/>
	<path d="M934.68,1527.4c5.09,1.92,9.98-3.45,12.15-7.37c0.57-1.04,1.09-2.11,1.57-3.2c4.29-9.71,9.37-21.01,12.31-28.69
		c2.94-7.68,11.29-21.69,4.63-26.09c-6.66-4.4-12.2,2.15-17.73,15.47c-5.53,13.33-13.67,29.93-16.04,36.93
		c-1.26,3.71-1.9,10.38,2.34,12.6C934.17,1527.19,934.43,1527.31,934.68,1527.4z"/>
	<path d="M1082.57,804.19c-0.66,0.39-0.06,2.14,0.12,2.56c0.85,1.99,2.19,3.8,3.43,5.56c3.77,5.35,8.44,10.75,15.59,17.05
		c7.15,6.3,22.9,13.56,33.54,14.41c10.64,0.84,23.3-1.29,31.74-5.46c8.44-4.16,9.85-8.44,5.85-14.07c-4-5.63-10.35-4.33-17.78,0.11
		c-7.43,4.45-16.88,6.19-26.39,5.23c-9.51-0.96-21.89-6.98-30.11-13.39c-2.65-2.07-5.24-4.21-7.83-6.36
		c-2.31-1.91-4.6-4.02-7.22-5.51c-0.18-0.1-0.37-0.2-0.57-0.21L1082.57,804.19z"/>
	<path d="M1391.19,620.63c-1.83,1.19-2.59,2.85-0.93,5.48c1.66,2.64,2.47,4.29,4.38,4.72c1.91,0.42,7.23-2.72,6.8-7.31
		c-0.27-2.92-2.87-5.79-6.04-4.96C1393.88,618.97,1392.74,620.38,1391.19,620.63z"/>
	<path d="M1590.73,392.02c-1.35,0.3-2.72,0.54-3.66,1.69c-1.71,2.11-0.32,5.3,1.94,6.34l0.29,0.12c3.63,1.35,24.08,4.35,32.55,6.62
		s19.87,8.9,23.65,9.83c3.78,0.93,5.27-2.21,2.78-4.92c-2.49-2.71-10.61-10.11-25.07-15.88c-7.33-2.93-15.26-5.32-23.2-5.66
		c-2.81-0.12-5.54,0.7-8.18,1.56C1591.47,391.84,1591.1,391.93,1590.73,392.02z"/>
	<path d="M1635.43,276.68c-0.38,0.39-0.83,0.71-1.33,0.95c-7.32,3.45-14.25,0.4-19.12-5.53c-8.22-10.02-25.66-30.39-38.49-46.03
		c-12.83-15.64-29.6-33.88-31.96-42.21c7.99,2.59,18.35,12.72,34.78,27.69c16.43,14.97,34.1,32.42,42.43,39.39
		c8.33,6.98,14.29,10.35,15.42,14.86C1637.91,268.86,1637.93,274.15,1635.43,276.68z"/>
	<path d="M1622.79,134.69c-1.65,0.67-1.64,3.04,5.23,17.98s14.07,36.75,19.84,49.56c5.77,12.8,10.59,26.64,14.15,33.75
		c3.56,7.11,6.95,11.14,10.83,11.38c3.87,0.24,4.66-2.06,6.72-3.79c2.06-1.74,5.93-3.56,4.19-9.88
		c-1.74-6.32-6.72-12.33-12.72-21.42c-6.01-9.09-26.32-45.76-31.06-54.3C1635.21,149.42,1626.25,132.12,1622.79,134.69z"/>
	<path d="M1708.42,117.29c-1.14-0.18-2.19,0.77-2.63,1.91c-0.88,2.25-0.7,5.04-0.63,7.4c0.2,7.23,2.14,30.94,3.05,46.01
		c0.92,15.07,4.07,59.45,5.8,68.1c1.73,8.65,2.44,11.3,6.01,10.59s13.03-3.77,12.93-8.96c-0.1-5.19-2.34-12.32-6.01-33.9
		c-3.66-21.58-7.94-44.38-10.48-61.89c-1.28-8.82-2.23-18.53-5.72-26.8c-0.3-0.7-0.64-1.42-1.22-1.92
		C1709.15,117.52,1708.78,117.35,1708.42,117.29z"/>
	<path d="M1747.99,389.4c0,0.18,0.02,0.36,0.05,0.55c1.15,5.96,9.24,6.36,13.94,5.94c8.04-0.71,13.69-5.45,16.61-10.7
		c2.92-5.25,0.52-7.4-3.7-9.54c-4.22-2.14-6.36-1.62-12,2.34c-5.64,3.96-9.28,5.58-11.16,6.88
		C1750.21,385.91,1747.98,387.36,1747.99,389.4z"/>
	<path d="M1971.95,395.67c-0.39-12.43-0.67-23.9-4.63-34.6c-3.95-10.7-4.43-10.7-5.98-17.06c-1.54-6.36-6.36-17.06-13.78-26.7
		c-7.42-9.64-21.78-21.78-30.94-27.56c-9.16-5.78-14.94-8.48-22.36-14.65c-7.42-6.17-8.87-11.28-10.89-16.87
		c-2.02-5.59-3.76-10.7-8.39-17.83c-4.63-7.13-9.25-10.89-16.29-11.66c-7.04-0.77-13.49,3.28-21.59,11.08
		c-8.1,7.81-11.18,14.07-12.53,23.23c-1.35,9.16-0.19,10.41-3.37,10.89c-3.18,0.48-6.65-0.19-34.31,2.6
		c-27.66,2.79-40.77,4.82-45.49,7.61c-4.72,2.79-6.36,5.78-10.41,8.87c-4.05,3.08-12.82,2.6-16.96,1.64
		c-4.14-0.96-12.53-3.18-18.41-2.02c-5.88,1.16-14.07,6.26-18.02,14.07c-3.95,7.81-1.54,9.25-6.46,11.66
		c-4.92,2.41-17.16,1.93-29.11,9.73c-11.95,7.81-15.52,14.36-18.6,19.66c-3.08,5.3-3.08,8.38-5.3,8.58s-13.2-2.31-28.62-5.2
		c-15.42-2.89-44.33-0.19-68.04,8.19c-23.71,8.39-39.75,17.75-50.81,27.67c-5.2,5.86-7.61,9.51-9.83,9.06
		c-2.23-0.45-14.05-6.68-33.26-7.19c-18.78-0.5-49.88,5.08-64.47,37.21c-0.55,1.21-1.98,1.74-3.18,1.17
		c-12.3-5.9-39.23-19.14-99.28-20.32c-36.77,0.15-74.59,7.84-106.24,21.88c-1.28,0.57-2.73,0.57-4-0.01
		c-19.86-9.12-80.15-34.99-119.87-24.63c-1.74,0.46-3.6-0.18-4.67-1.63c-14.23-19.13-77.77-53.42-160.35-18.71
		c-1.36,0.75-1.3-1.32,0.14-3.33s1.82-2.82-1.44-7.9c-3.26-5.08-9.16-13.36-14.67-19c-5.52-5.64-11.35-6.27-13.29-0.19
		c-1.94,6.08-2.57,9.53-6.02,7.65c-3.45-1.88-8.22-3.51-14.17-4.52c-5.96-1-9.53-0.5-11.1-3.76c-1.57-3.26-0.13-5.64,3.64-11.16
		c3.76-5.52,7.81-16.8,7.71-26.5c-0.09-9.7-5.67-18.12-6.59-26.72c-0.92-8.6,4.67-14.64,7.32-19.95c2.65-5.31,7.41-11.8,6.86-24.8
		c-0.55-12.99-3.29-19.31-5.95-26.08c-2.65-6.77-6.31-10.71-6.13-12.9c0.18-2.2,3.2-5.86,5.67-9.61c2.47-3.75,9.24-10.61,9.24-30.01
		s-7.19-37.61-9.43-42.09c-2.24-4.48-12.15-17.8-32.82-17.9c-11.83,0.11-25.47,4.69-33.78,5.65c-8.31,0.96-14.92-1.49-29.09-10.02
		c-14.17-8.53-27.39-17.26-53.28-17.05c-15.56,0.32-23.23,3.09-37.41,8.53c-14.17,5.43-27.49,12.26-34.21,19.29
		c-6.71,7.03-10.55,16.73-15.24,25.26c-4.69,8.53-6.18,12.04-9.27,14.07c-3.09,2.02-12.36,10.12-17.05,19.4
		c-4.69,9.27-5.12,10.66-9.91,19.61c-4.8,8.95-8.63,17.69-10.76,31.01c-2.13,13.32-1.71,36.87-1.07,50.73s3.09,32.93,11.62,50.3
		c8.53,17.37,17.26,27.6,26.22,34.74c8.95,7.14,17.88,9.51,20.19,9.71c2.3,0.19,3.71,0.51,3.65,3.39c-0.06,2.88-2.56,4.42-7.11,6.08
		c-4.55,1.66-17.93,8.39-22.92,15.24c-5.19-8.96-11.27-17.29-21.96-12.49c-10.69,4.8-22,14.97-25.05,25.46s-2.36,23.12-2.36,23.12
		s-6.18,4.36-9.36,7.09c-3.18,2.73-3.36,0.91-8,0.73c-4.63-0.18-19.81,3-34.35,8.72c-14.54,5.72-37.47,16.94-59.5,52.44
		c-22.03,35.5-23.64,54.43-24.08,66.6c0,0-16.37,1.62-25.63,15.4s-10.55,28.64-10.55,28.64s-2.69,2.8-9.15,13.14
		c-6.46,10.34-9.05,15.4-19.06,25.84c-10.01,10.45-25.2,28.21-31.55,42.53c-6.35,14.32-15.08,37.8-17.77,51.47
		c-2.69,13.68-1.94,21.86-1.4,34.24s-0.75,30.26,0.65,43.4c1.4,13.14,3.23,25.31,3.55,33.06c0.32,7.75,2.8,16.04,7.54,24.55
		c4.74,8.51,15.51,11.95,19.06,10.45c3.55-1.51,13.14,1.08,29.94-3.34c16.8-4.42,44.8-20.03,60.41-29.94
		c15.61-9.91,25.63-23.91,28.32-32.84s5.71-15.72,11.31-19.49c5.6-3.77,11.52-6.46,14.21-16.91c2.69-10.45,4.74-18.52,4.63-20.57
		c4.2-1.29,8.51-2.58,14.11-4.74c5.6-2.15,10.34-2.69,14-2.91c3.66-0.22,3.23,3.23,3.34,7.21c0.11,3.98-0.32,10.45,1.51,24.44
		c1.83,14,4.85,20.46,5.28,22.51c0.43,2.05,0,5.38-3.45,8.29c-3.45,2.91-9.8,11.74-13.46,26.27c-3.66,14.54,0.43,21,0.22,23.8
		c-0.22,2.8-0.75,4.31-2.69,6.03c-1.94,1.72-12.49,10.23-15.94,20.46c-3.45,10.23-4.95,13.78-8.4,25.09
		c-3.45,11.31-4.09,22.08-4.09,29.61c0,7.54-1.94,10.55-3.98,14.75c-2.05,4.2-7.21,11.63-11.63,29.61
		c-4.42,17.98-4.31,38.66-5.17,52.55c-0.86,13.89,0.32,24.87-2.15,31.01c-2.48,6.14-21.19,29.92-39.37,60.09
		c-18.05,29.79-22.44,37.78-24.76,47.45c-2.32,9.67-1.16,13.02,1.42,13.93c2.58,0.9,3.87-1.42,7.09-0.13
		c3.22,1.29,10.96,6.45,29.01,8.64c18.05,2.19,25.92,2.19,27.59,2.32c1.68,0.13,2.71,2.06,3.48,7.87c0.77,5.8,4.13,20.12,5.54,29.66
		s1.93,7.87,3.48,15.09s0.64,10.32,2.58,16.12c1.93,5.8,10.32,32.49,13.67,45.39c3.35,12.89,3.48,26.18,3.48,26.18
		s-34.82,11.09-72.47,36.23s-63.12,60.16-78.58,86.52c-15.46,26.36-21.73,37.77-40.25,57.53c-6.06,6.47-12.46,12.6-19.22,18.34
		c-4.33,3.68-12.56,8.87-17.76,15.02c-4.21,4.97-6.44,10.58-3.04,16.52c1.8,3.15,2.18,5.33-1.35,6.9
		c-3.53,1.58-23.99,14.64-37.07,21.84c-13.08,7.2-19.54,14.25-15.28,35.85c3.53,14.84,4.47,16.03,5.64,23.74
		c1.17,7.71,2.34,17.57,15.32,20.79c-5.17,7.22-19.74,25.72-25.38,59.92c-3.75,22.77-4.76,33.79-5.01,38.62
		c-0.1,1.86-1.61,3.32-3.47,3.36c-14.9,0.33-74.37,1.64-90.92,1.8c-18.98,0.19-28.37-1.13-28.75,11.84
		c-0.38,12.97,7.52,15.41,17.85,14.66s96.77-1.5,103.72-1.5c6.95,0,7.33,0.56,7.7,3.95c1.5,8.83,5.26,15.52,13.69,30.73
		c8.43,15.2,21.83,36.73,24.84,41.24c3.01,4.52,9.62,13.38,14.09,15.67c4.47,2.28,6.75,1.49,16.19-0.6
		c9.43-2.09,19.46-4.77,23.24-5.56c3.77-0.79,9.14-5.36,10.53-17.18c1.39-11.82,3.18-41.21,4.27-49.85s2.48-12.23,1.9-13.71
		c-0.58-1.49-3.42-7.04,9.3-6.59c12.73,0.45,43.55-0.19,61.78-0.39c18.22-0.19,400.48-6.02,400.48-6.02s-5.03,4.31-24.97,11.14
		c-19.94,6.83-54.43,14.19-74.55,22.45c-20.12,8.26-31.38,21.16-34.98,34.66c-3.6,13.5-7.8,29.85,17.1,30.3
		c24.9,0.45,64.35,5.4,85.5,5.25s30.15-1.8,43.2-1.95c13.05-0.15,22.8,1.8,34.5,0.75c11.7-1.05,16.2-4.95,20.4-9.3
		c4.2-4.35,4.65-7.95,8.1-8.55c3.45-0.6,7.65,2.85,12.75,5.55c5.1,2.7,11.25,8.4,14.7,11.1c3.45,2.7,7.2,7.05,22.35,6.3
		c15.15-0.75,16.8-1.5,31.35-2.85c14.55-1.35,20.7-1.2,27.6-1.5c6.9-0.3,11.85-0.45,14.55-12.45c2.7-12,3.45-33.3,2.85-45.6
		c-0.6-12.3-0.9-21.15,2.1-23.85c4.8,3.9,20.1,15.15,39.6,24.15c19.5,9,28.35,12.45,39.9,15.15c11.55,2.7,28.65,7.05,37.05,0.3
		c8.4-6.75,9.75-10.95,13.5-16.95c3.75-6,11.14-14.2,11.96-20.03c0.82-5.82-2.1-8.65-5.36-10.63c-3.26-1.98-3.6-3.27-5.21-5.84
		c-1.61-2.57-4.11-3.19-9.08-6.96c-4.97-3.77-6.55-5.65-6.55-5.65s17.61-0.31,35.4-0.38c17.79-0.07,179.74-3.52,179.74-3.52
		s-1.81,6.9-1.96,12.79c-0.15,5.9-2.87,16.36-6.56,25.58c-3.69,9.21-9.88,20.86-8.4,25.73c1.47,4.87,4.5,7.96,8.77,11.57
		c4.28,3.61,10.17,9.29,12.16,10.98c1.99,1.7,8.7,3.76,17.1-2.14c8.4-5.9,17.54-13.93,27.79-27.94
		c10.25-14.01,21.75-32.51,26.24-41.5c4.5-8.99,6.9-12.73,8.3-14.91c1.4-2.19,3.31-2.47,11.07-2.33
		c7.76,0.14,460.25-12.43,463.6-12.49s2.1-2.22-0.06-2.56c-2.16-0.34-466.02-1.3-466.02-1.3s9.92-21.7,13.21-49.62
		c3.28-27.91,2.58-45.15,2.58-45.15s4.12,1.65,13.48,1.88c9.35,0.22,14.76-4.33,18.61-11.23c3.85-6.9,11.8-23.05,15.65-30.95
		c3.85-7.9,10-21.15,11.85-27.3c1.85-6.15,0.95-13.15,0.75-17.35c-0.2-4.2-1.3-6.75-8.1-11.15c-6.8-4.4-14.5-9.25-24.6-13.15
		c-10.1-3.9-15.25-5.75-28.05-7.85c-12.8-2.1-16.4-1.95-25.25-2.85c-8.85-0.9-11.8-1.65-14.15-4.45s-5.45-4.6-11.75-5.6
		c-6.3-1-12.45-3.25-15.25-6.3c-2.8-3.05-7-6.95-12.45-11.8c-5.45-4.85-21.92-19.16-61.72-46.16c-39.8-27-67.74-47.53-97.91-58.81
		c-30.16-11.28-32.32-11.28-36.5-12.67c-4.18-1.39-5.96-2.53-5.96-2.53s17.87-17.62,36.5-28.51c18.63-10.9,37.64-18.63,59.31-31.68
		c21.67-13.05,23.07-12.29,31.68-17.74c8.62-5.45,10.52-7.86,16.22-11.79c5.7-3.93,13.69-3.68,35.99,1.65
		c22.31,5.32,53.73,17.74,79.21,29.15c25.47,11.41,40.43,18,64.51,26.49s46.51,13.56,56.78,14.19c10.27,0.63,15.46,0.38,18.12,1.52
		c2.66,1.14,3.93,3.93,4.31,6.84c0.38,2.91,0.86,6.14,5.43,8.66c4.57,2.52,6.69,7.15,17.01,12.82c10.32,5.67,14.16,7.46,26.04,8.87
		c11.88,1.41,13.52,2.21,20.37,2.17c6.85-0.04,11.27-1.45,17.28-2.36c6.02-0.91,10.74-1.14,19.11-2.93
		c8.38-1.79,15.72-5.86,24.48-10.13c8.76-4.26,14.7-9.37,21.05-16.87c6.36-7.5,16.22-20.64,22.77-36.92
		c6.56-16.28,7.61-27.39,9.62-40.2c2.01-12.81,6.72-23.24,11.82-31.39c5.1-8.16,12.5-13.2,15.83-15.61
		c3.33-2.41,7.62-1.88,12.5-2.36c4.88-0.48,7.08-2.79,12.61-6.98c5.53-4.19,14.11-13.04,18.03-19.69c3.92-6.65,5.79-13.9,6.01-16.47
		c0.21-2.58,1.07-3.22,4.35-3.06c3.27,0.16,5.42,0.48,7.73-1.29c3.27-2.41,10.68-10.73,14.17-16.85c3.49-6.12,3.81-12.23,3.92-14.11
		c0.11-1.88,0.86-2.31,6.71-5.9c5.85-3.59,53-32.36,80.32-72.51c27.12-39.73,38.89-65.58,42.88-96.69
		c3.99-31.11,1.68-75.67-3.57-109.73c-5.25-34.05-7.78-48.77-10.51-56.76c-2.73-7.99-2.9-10.22-2.19-17.02
		c0.71-6.8,8.44-55.36,10.46-79.83c2.02-24.47,2.92-50.29-9.43-80.38c-12.35-30.08-39.29-59.27-61.97-70.95c0,0,0.36-1.56,2.2-4.48
		c1.84-2.91-0.97-6.49-2.35-8.59c-1.38-2.1-17.51-23.59-57.39-27.56c0,0,2.01-5.69,3.19-13.3c1.18-7.6,3.6-21.46,3.6-21.46
		s5.24,2.53,13.46-0.11s17.85-7.21,27.65-8.11s22.36,0.56,30.7-4c8.34-4.56,11.72-8.34,21.12-14.59
		c9.41-6.25,25.68-8.62,34.64-14.93s20.56-20.73,26.87-30.47s14.13-19.43,18.85-35.62C1970.32,414.36,1972.34,408.1,1971.95,395.67z
		 M1464.44,415.33c0.6-3.42,2.72-5.21,5.64-6.62c0.17-0.08,0.33-0.16,0.5-0.24c5.76-2.63,11.33-5.66,16.73-8.97
		c6.41-3.93,14.59-7.69,29.17-13.62c14.59-5.93,40.31-13.22,62.19-12.1c21.88,1.12,42.47,6.49,59.7,17.87s29.25,31.09,32.14,40.31
		c2.89,9.22,4.01,21.88-2,35.18c-6.01,13.3-23.16,20.6-28.93,23.4c-5.77,2.8-8.74,2.8-18.67,0c-9.94-2.8-15.23-5.85-33.5-8.9
		c-18.27-3.05-22.12-1.6-35.42-0.88c-13.3,0.72-19.95,3.77-25.72,7.61c-5.77,3.85-11.38,8.74-7.77,13.54
		c3.61,4.81,10.1,5.53,16.19,5.37c6.09-0.16,15.23-1.68,23.4-1.92c8.17-0.24,18.75,0.48,24.6,0.72s10.82,4.25,18.11,6.09
		c7.29,1.84,9.62,3.13,9.62,6.65c0,3.53-11.55,12.49-22.52,12.49s-24.95-3.66-43.5-10.58c-18.55-6.92-29-10.06-38.15-11.76
		c-9.14-1.7-13.46-2.09-16.07-2.61c-2.61-0.52-5.88,0.26-7.45-0.39c-1.57-0.65-8.36-11.89-12.8-28.09
		c-4.44-16.2-3.92-38.93-5.09-50.56C1464.44,423.43,1463.76,419.24,1464.44,415.33z M1422.97,414.93c1.03-9.29,6.93-8.26,11.5-8.26
		c0,0,14.16,0.29,16.67,0.59c2.51,0.3,3.39,1.33,2.51,4.72c-0.88,3.39-6.49,25.52-7.08,50.44s9.88,44.39,9.88,44.39
		s-11.06,3.39-16.52,5.01c-5.46,1.62-6.19,0-8.41-5.01c-2.21-5.01-5.9-17.55-9.14-34.66
		C1419.13,455.05,1421.93,424.22,1422.97,414.93z M1436.94,538.71c9.11-4.25,20.82-8.29,42.98-8.39c22.16-0.1,27.86,5.28,27.86,5.28
		s-10.36,13.67-18.95,24.86c-8.6,11.19-19.26,25.89-21.44,29.62s-5.08,7.77-5.49,10.56c-0.41,2.8-2.69,6.94-8.29,17.4
		c-5.59,10.46-13.88,27.14-20.61,42.57c-6.73,15.43-20.51,55.82-28.38,74.57c-7.87,18.75-29.41,61.93-33.14,68.87
		c-3.73,6.94-7.77,1.55-17.61-1.97c-9.84-3.52-46.5-10.05-46.5-10.05c3.35-18.69,18.95-54.58,32.42-79.33
		c13.46-24.75,30.45-47.12,35.84-52.51c1.97,5.28,7.04,7.25,15.95,11.5s15.95,5.7,17.92-0.41s-8.29-17.09-15.33-24.34
		c-7.04-7.25-11.6-10.05-12.64-20.4c-1.04-10.36,4.66-29.52,9.11-46.19c4.45-16.67,5.8-24.13,7.66-31.69
		c3.94,3.42,10.05,3.94,16.36,2.28C1420.99,549.27,1427.83,542.95,1436.94,538.71z M1224.25,765.1c-2.1-11.73-9.29-25.55-18.58-36.5
		c-9.29-10.95-15.82-19.36-39.82-35.18c-24-15.82-42.48-17.62-48.86-17.92c-6.37-0.3-9.39,0.55-12.6-2.01
		c-1.57-1.25-3.41-3.73-1.5-5.52c0.31-0.29,0.66-0.56,1.03-0.82c1.99-1.37,4.73-2.34,6.78-3.22c13.53-5.77,28.83-7.75,43.41-8.35
		c46.24,0.22,52.77,26.55,58.63,42.15c5.86,15.6,13.16,48.89,17.04,69.8c3.87,20.91,6.97,31.31,7.74,35.51
		c0.77,4.2,0.77,7.85-3.98,8.52c-4.76,0.66-7.08,0.22-7.52-4.09c-0.44-4.31,2.21-12.83,2.32-16.26
		C1228.46,787.78,1226.36,776.82,1224.25,765.1z M1194.18,822.72c-6.35,10.74-16.01,18.45-24.22,21.77
		c-8.2,3.32-12.5,5.37-13.38,8.01c-0.88,2.64-10.39,5.28-20.6,4.39c-10.21-0.89-40.41-4.44-62.83-33.3
		c-22.42-28.86-30.19-49.73-30.86-71.26c-0.67-21.53,4.66-29.3,15.76-37.96c3.74-3.42,7.79-6.51,12.17-9.05
		c10.2-5.91,21.74-8.2,33.41-8.76c2.57-0.12,5.13-0.14,7.69-0.04c11.77,0.45,23.36,3.25,34.02,8.44
		c11.62,5.66,32.42,23.83,44.33,40.82c11.91,16.99,12.99,31.64,14.45,43.16C1205.6,800.46,1200.53,811.98,1194.18,822.72z
		 M1243.9,694.91c3.97-1.54,9.69-0.15,10.58,4.32c0.89,4.47,2.71,14.96,4.93,27.62c2.22,12.66,5.45,34.83,5.73,44.8
		c0.28,9.98-0.19,24.56,0.39,28.16c0.58,3.6-0.04,7.51-1.69,8.67c-1.65,1.16-8.05,5.56-8.05,5.56c1.09-3.36,1.75-10.27,1.11-18.36
		c-0.64-8.09-2.61-21.74-4.7-29.64c-2.09-7.9-2.83-12.67-4.87-21.81c-2.04-9.14-2.33-9.49-3.82-17.54
		c-1.49-8.05-2.98-11.52-5.22-18.88C1236.05,700.47,1239.93,696.45,1243.9,694.91z M1260.14,836.11
		c8.85-10.7,16.73-17.9,22.56-22.28c5.83-4.39,6.86-4.46,11.11-3.91c4.25,0.55,18.51,1.71,32.09,1.99
		c13.58,0.27,30.65,3.09,37.92,4.53c-2.47,4.25-10.52,17.15-17.28,27.47c-6.76,10.33-16.64,25.43-20.16,29.77
		c-3.52,4.34-6.54,11.26-10.93,8.02c-4.39-3.24-21.86-13.13-39.11-17.8c-17.25-4.67-30.48-6.65-30.48-6.65
		S1251.29,846.81,1260.14,836.11z M1290.25,736.08c-3.46-14.95-5.58-19.81-7.38-24.52c-1.79-4.72,0.47-4.72,3.39-7.18
		c2.92-2.46,5.92-3.66,5.92-3.66s1.4,11.83,4.79,21.67c3.39,9.84,9.77,13.89,8.64,17.15c-1.13,3.26-6.18,13.23-8.77,18.28
		c-2.59,5.05-3.99,7.18-3.99,7.18S1293.71,751.03,1290.25,736.08z M1362.93,640.15c5.02,12.41,6.86,10.3,3.7,14.26
		c-3.17,3.96-25.48,21-49.83,61.72c0,0-7.85-11.95-7.33-33.2c0.53-21.25,8.98-34.45,23.76-53.59
		c14.78-19.14,36.83-41.32,36.83-41.32s-0.53,5.02-3.3,11.48C1363.99,605.96,1357.92,627.74,1362.93,640.15z M1382.7,455.05
		c1.18-40.41,31.45-44.77,31.45-44.77c-5.57,12.31-8.74,30.46-9.62,57.16c-0.88,26.7,5.6,44.1,9,51.47
		c3.39,7.37-1.92,6.64-4.42,7.82c-2.51,1.18-8.41,5.01-8.41,5.01s-1.62-6.64-5.75-16.08
		C1390.81,506.22,1381.96,483.66,1382.7,455.05z M1372.94,535.49c0.77,1.07,3.81,7.08,7.38,10.66c3.57,3.57,8.1,0.42,8.1,0.42
		s0.48,1.61,0.36,2.74c-0.12,1.13-4.11,7.14-5.42,9.41c-1.31,2.26-2.2,5.36-2.2,6.43c0,1.07-1.67,2.74-5.36,5.54
		c-3.69,2.8-10.84,7.98-21.49,17.21c-10.66,9.23-25.06,24.29-31.67,31.2c-6.61,6.91-16.25,20.06-18.58,22.8
		c-2.32,2.74-1.43,4.05-4.29,7.74c-2.86,3.69-6.01,5.36-13.4,9.59c-7.38,4.23-11.91,11.19-14.23,15.42
		c-2.32,4.23-5.12,7.44-5.12,7.44s-5.54-6.19-14.76-5.24c-11.31,1.19-19.78,13.46-19.78,13.46s-5.64-14.96-14.96-29.35
		c-9.31-14.39-30.06-25.96-60.82-26.39c-30.76-0.42-56.02,8.61-66.04,16.79c-10.02,8.18-13.41,18.34-7.9,27.94
		c-14.53,1.13-42.19,17.21-52.77,38.8c-10.58,21.59-8.47,36.83-2.4,59.26c6.07,22.44,21.73,46.99,36.69,64.77
		c14.96,17.78,39.23,34.43,73.09,35.28c33.87,0.85,51.01-17.2,60.93-26.98c9.92-9.78,15.4-17.11,16.74-21.03
		c1.33-3.93,4.22-6.15,9.7-4.3c5.48,1.85,14.89,1.56,20.07-0.37c-0.52,3.63-5.18,8.89-10,14.44c-4.81,5.55-8.22,13.18-7.63,16.96
		c0.59,3.78,0.74,7.33-2.81,10c-3.55,2.67-12.11,8.06-25.94,18.07c-13.83,10-46.48,35.75-74.87,59.58s-57.66,49.28-87.67,79.87
		c-30.01,30.6-52.07,61.34-65.02,77.52s-31.92,40.6-31.92,40.6s-13.53-40.45-18.24-52.22c-4.71-11.77-13.39-35.01-24.42-63.84
		c-11.03-28.83-14.86-38.54-22.51-64.43c-7.65-25.89-10.89-40.16-12.94-48.1c-0.29-2.79-0.88-5.59,1.47-10.59
		c2.35-5,2.35-20.45-0.44-34.42c-2.12-10.61-8.23-19.52-11.05-23.2c-0.82-1.06-0.76-2.55,0.14-3.56
		c4.93-5.52,20.15-23.43,29.3-43.56c11.03-24.27,14.42-40.6,22.36-69.87c7.94-29.27,16.77-65.75,25.45-93.41
		c8.68-27.65,27.62-67.81,31.51-74.94c3.89-7.13,11.13-9.51,19.77-8.43c0,0,21.23,2.6,38.54,4.46c17.32,1.86,33.42,4.38,49.9,4.1
		c16.48-0.28,20.11-2.05,23.55-2.7s2.98-1.02,13.41-1.49c10.43-0.47,19.64-4.93,27.37-7.17s12.38-4,15.55-3.26
		c3.17,0.74,27.9,6.82,46.29,11.09c18.39,4.28,39.24,9.81,66.87,9.46c27.62-0.36,44.95-5.24,66.92-12.09
		c21.97-6.85,27.98-9.05,34.41-11.01C1368.59,540.61,1371.51,537.75,1372.94,535.49z M839.34,1130.96c0,0,5.42-1.58,4.74-9.33
		c-0.68-7.75-2.63-21.15-4.36-33.11c-1.73-11.97-5.5-50.25-6.56-60.33c-1.06-10.09-3.28-56.76-3.17-75.29s0.35-22.64,4.46-24.51
		c4.11-1.88,8.56-2.81,10.44-3.87c1.88-1.06,4.93-5.04,4.93-5.04s0.94,4.11,0.35,21.11c-0.59,17.01,1.17,33.19,3.99,50.67
		c2.81,17.48,9.5,42.22,16.42,64.86c6.92,22.64,13.96,38.47,16.54,46.56c2.58,8.09,2.46,10.91,3.99,15.13
		c1.52,4.22,3.28,3.99,3.75,6.33c0.47,2.35,0.47,6.98,2.87,12.37c2.4,5.39,4.13,9.85,4.37,14.22c0.23,4.37-0.23,3.72,3.31,10.85
		c3.55,7.12,3.46,7.01,4.87,8.27c1.41,1.26,1.55,3.81,1.41,5.31c-0.15,1.5-5.99,7.4-14.32,17.09s-27.56,33.8-33.08,40.05
		s-9.45,11.78-20.51,27.08c-11.05,15.3-28.49,45.69-34,55.9c-5.51,10.2-13.6,27.8-16.77,30.96c-4.46-7.15-8.44-18.41-13.49-27.91
		c-5.04-9.5-24.39-38.35-36.94-58.05c-12.55-19.7-26.15-46.44-34.01-59.11c-7.86-12.67-22.74-45.94-22.74-45.94
		s16.93-2.86,29.2-4.06c12.27-1.2,48.62-2.94,64.72-3.01c16.11-0.08,34.17,0.15,41.54,0c7.38-0.15,18.44-4.74,18.36-10.24
		C839.57,1132.39,839.34,1130.96,839.34,1130.96z M831.77,905.54c0.33-3.95,3.74-39.66,3.74-39.66s7.25,7.91,9.67,21.64
		c2.42,13.73,1.98,19.33,0.33,20.76c-1.65,1.43-4.06,2.53-5.82,1.87c-1.76-0.66-0.55,0-4.72,1.43
		C830.78,913.01,831.44,909.5,831.77,905.54z M883.71,399.69c9.53-1.79,17.01-5.84,49.86-5.71c32.84,0.12,53.64,7.74,66.13,12.99
		c12.49,5.25,13.3,8.55,13.49,12.55c0.19,4,3.72,7.08,8.78,8.31c5.06,1.23,11.18-2.45,18.23-2.91c7.05-0.46,19.15-1.99,45.35,2.6
		c26.2,4.6,47.65,14.86,53.47,19.46c5.82,4.6,11.95,5.06,22.22,2.3c10.27-2.76,16.55-8.27,47.04-15.02
		c30.49-6.74,48.42-6.44,80.59-6.28c37.8,2.06,61.9,8.11,68.67,10c1,0.28,1.57,1.34,1.23,2.33c-0.97,2.84-2.62,9.61-3.09,23.61
		c-0.62,18.36,6.63,41.48,10.23,51.96c0.42,1.22-0.53,2.47-1.83,2.4c-11.19-0.61-31.92,8.35-54.03,16.97
		c-24.11,9.41-57,12.37-85.23,9.09c-28.23-3.28-53.72-7.61-60.49-11.1c11.84-5.29,23.16-22.42,30.03-32.99
		c6.87-10.57,3.17-15.33-4.44-17.03c-7.61-1.69-10.99,7.1-28.82,19.19c-17.83,12.1-32.9,22.07-74.49,28.01
		c-41.6,5.94-63.67,1.06-84.89-0.21c-21.22-1.27-30.77-0.42-35.87,2.55c-5.09,2.97-4.88,3.18-7.22,2.97
		c-2.33-0.21-5.09-0.85-9.97,2.12c-4.88,2.97-7.64,6.79-19.1,29.08c-11.46,22.28-21.43,48.6-29.92,76.61
		c-8.49,28.01-19.24,79.78-24.61,104.6c-5.37,24.82-16.25,56.04-25.08,72.68c-8.83,16.63-11.13,17.53-11.13,17.53
		c-3.04-6.21,1.44-20.64,1.27-50.16c-0.18-29.52,0.36-85.9-0.18-102.62c-0.53-16.72-1.07-21.52,14.58-44.82
		c18.5-29.34,30.41-30.41,49.97-56.55c19.56-26.14,24.36-52.82,43.57-68.65c19.21-15.83,45.53-27.39,55.31-34.15
		c9.78-6.76,4.8-11.92,2.85-14.76c-1.96-2.85-15.12-1.78-40.73,9.07c-25.61,10.85-46.24,28.99-54.06,42.33
		c-7.83,13.34-22.23,48.02-35.39,62.07c-13.16,14.05-25.08,31.48-33.79,42.33c-0.36-14.05,7.83-101.55,11.92-137.12
		c4.09-35.57,9.83-84.74,9.83-84.74C865.87,401.54,874.17,401.49,883.71,399.69z M643.63,100.51c10.9-4.98,29.04-4.52,42.07-1.26
		c13.03,3.26,23.26,12.1,24.52,13.23c1.26,1.13,1.2,4.39-2.79,3.85c-3.99-0.53-19.27-9.64-36.29-11.56
		c-17.01-1.93-25.99,0.93-33.36,3.72c-7.38,2.79-8.17,3.39-10.37,3.39C627.42,111.88,632.73,105.5,643.63,100.51z M570.87,298.6
		c0-14.38,10.3-25.88,23.84-28.63c7.19-1.32,7.19-0.6,12.34,2.88c5.15,3.47,10.42,7.79,13.9,9.58c3.47,1.8,5.63,1.8,9.58-1.56
		c3.95-3.35,18.93-10.66,23.6-13.18c4.67-2.52,20.85-13.18,27.07-29.59c6.23-16.41-3.59-28.87-12.7-37.98
		c-9.1-9.1-27.47-24.24-29.85-30.75c0,0,6.4,1,15.43,6.87c9.03,5.86,22.45,13.42,38.96,18.44c16.51,5.01,17.67,5.09,25.38,5.09
		c7.71,0,14.35,3.01,19.67,8.02c5.32,5.01,13.89,10.72,28.08,11.49c14.19,0.77,19.9-0.15,22.6,0.08c2.7,0.23,4.01,5.01,6.02,9.33
		c2.01,4.32,4.24,14.27,0.39,19.13c-3.86,4.86-7.64,5.4-12.96,7.48s-11.96,4.32-5.25,20.75c6.71,16.43,12.96,27.39,15.58,33.87
		c2.62,6.48,3.24,10.95,1,14.12c-2.24,3.16-5.63,2.85-9.41,1.7c-3.78-1.16-8.56-2.24-11.65-1.47c-3.09,0.77-5.01,2.08-6.17,2.31
		c-1.16,0.23-2.08,0.62-4.09-2.78c-2.01-3.39-3.78-3.78-4.24-5.4c-0.46-1.62,0.93-4.01,0.54-5.4c-0.39-1.39-2.24-2.16-4.78,0.62
		c-2.55,2.78-6.87,8.64-10.03,13.81c-3.16,5.17-5.09,5.4-9.18,8.87c-4.09,3.47-5.55,6.33-5.86,10.72c-0.31,4.4-1.23,5.71,1.85,7.17
		c3.09,1.47,5.86,2.47,5.25-1.47c-0.62-3.93,1.16-6.02,3.32-8.56c2.16-2.55,8.49-6.71,11.57-8.33c3.09-1.62,7.87-0.15,8.64,1.54
		c0.77,1.7,0.15,3.86,8.49,5.55c8.33,1.7,12.81,1.7,17.59,2.78c4.78,1.08,5.94,1.85,5.79,3.39c-0.15,1.54-1.77,2.39-4.78,2.47
		c-3.01,0.08-11.65-0.62-29.08,6.48c-17.43,7.1-23.07,12.11-24.22,13.42c-1.16,1.31-0.85,4.55,3.01,3.47
		c3.86-1.08,15.2-2.62,23.22-4.63c8.02-2.01,11.8-2.01,17.51-1.7c5.71,0.31,8.25,0.85,8.18,3.39c-0.08,2.55-2.31,4.63-5.17,6.09
		c-2.85,1.47-2.31,1.31-5.17,1.77c-2.85,0.46-5.09,1.77-9.57,4.01c-4.47,2.24-9.87,5.63-11.49,8.95c-1.62,3.32,0.46,6.94,5.48,9.95
		c5.01,3.01,20.6,1,20.6,1s-1.85,17.82-37.11,19.59c-14.73,0.08-33.57-3.45-57.17-16.03c-23.6-12.58-38.93-27.31-46.12-34.62
		c-7.19-7.31-8.86-8.63-7.19-11.62c1.68-3,1.08-5.39-3.47-8.51c-4.55-3.11-18.45-5.39-30.67-13.18
		C585.73,331.66,570.75,314.05,570.87,298.6z M577.44,407.28c1.76-0.99,19.11-16.7,19.11-16.7s2.71,7.07,5.3,18.94
		c2.59,11.88,14.9,40.49,23.32,61.76c8.42,21.27,17.6,33.58,23.64,40.06c6.05,6.48,7.88,9.61,12.96,7.88
		c5.07-1.73,4.86-5.83,3.67-9.07c-1.19-3.24-2.05-6.8-8.1-20.62s-13.6-36.39-20.19-50.96c-6.59-14.58-9.72-23.97-13.71-39.73
		c-3.99-15.76-7.23-24.4-8.1-27.42c-0.86-3.02,0.22-3.78,2.59-3.89c2.38-0.11,1.55,6.72,9.94,19.46c8.39,12.74,28.59,29.67,48.32,39
		c19.73,9.32,22.37,9.32,45.68,14.14c23.3,4.82,39.31,3.42,59.19-6.37c19.89-9.79,19.58-20.51,19.73-27.96
		c0.16-7.46-3.42-12.12-3.26-14.6c0.16-2.49,2.33-2.64,4.04-6.37s4.82-11.96,4.82-11.96s9.01,3.26,11.34,5.9
		c2.33,2.64,7.61,3.42,7.61,3.42s-12.43,38.53-13.36,39.46c-0.93,0.93-17.4,12.27-29.36,20.97c-11.96,8.7-41.17,30.61-58.1,47.38
		c-16.93,16.78-16.78,18.02-16.47,20.82c0.31,2.8,3.26,6.21,6.68,4.82c3.42-1.4,9.63-2.49,37.29-26.26
		c27.65-23.77,47.38-43.5,50.03-46.45c2.64-2.95,4.97-4.04,4.97-2.8c0,1.24-13.21,57.64-15.38,84.52
		c-2.17,26.88-4.35,45.21-4.35,45.21s-37.75-8.86-75.66-12.12c-37.91-3.26-75.35-1.4-84.83-0.62c-9.48,0.78-7.46-4.35-8.86-14.6
		c-1.4-10.25-5.28-31.69-14.76-63.23c-9.48-31.54-22.34-57.05-24.53-61.55C576.45,413.22,575.68,408.27,577.44,407.28z
		 M422.85,509.25c15.89-24.57,37.39-47.69,91.46-54.72c1.82-0.24,3.5,1,3.81,2.81c0.97,5.7,3.02,18.41,4.61,33.37
		c2.17,20.38,2.51,35.07,2.17,38.41c0,0-3.34-2.17-18.71-5.01c-4.41-0.81-8.88-1.27-13.36-1.48c-18.15-0.84-35.91,2.98-51.97,10.95
		c-3.6,1.79-7.11,3.78-10.52,5.98c-4.22,2.71-8.32,5.6-12.34,8.6c-12.53,9.35-9.52,11.52-14.36,12.8
		C403.64,560.97,406.65,534.31,422.85,509.25z M288.2,745.11c-0.25,0.11-0.54,0.2-0.79,0.09c-0.25-0.1-0.38-0.35-0.44-0.62
		l-0.03-0.22c-0.04-0.76,0.01-1.55,0.09-2.3c0.44-4.17,1.85-8.27,3.3-12.18c1.79-4.84,3.89-9.58,6.19-14.2
		c5.2-10.47,14.95-24.99,27.2-41.08c12.25-16.09,21.29-25.99,21.29-25.99c0.21,5.06,4.84,17.8,5.55,19.94
		c0.71,2.14,1,4.63-0.64,5.34c-1.64,0.71-6.27,1.71-12.39,5.27c-6.12,3.56-13.53,9.9-19.08,18.94c-5.55,9.04-4.2,14.03-3.84,16.16
		c0.36,2.14,0.78,2.99-0.78,4.34s-5.7,3.77-9.97,8.26c-4.27,4.49-10.82,11.53-12.82,15.17C290.37,743.24,289.52,744.52,288.2,745.11
		z M396.26,814.41c-3.21,5.92-7.43,12.24-15.75,17.06c-8.33,4.82-27.7,16.56-43.35,21.37c-14.6,4.49-25.7,6.37-31.12,6.84
		c-0.84,0.07-1.7-0.01-2.49-0.3c-5.22-1.91-6.47-8.41-8.23-15.07c-1.91-7.22-4.92-18.06-4.82-37.03
		c0.1-18.97,8.03-38.13,13.85-50.77s12.64-15.55,14.75-15.45c2.11,0.1,6.42,2.71,9.83,7.83c3.41,5.12,16.96,22.98,32.71,33.42
		c15.75,10.44,31.91,17.76,35.82,19.47C401.38,803.47,399.47,808.49,396.26,814.41z M421.65,776.58c-5.82,7.53-12.64,4.42-22.78-0.4
		c-10.13-4.82-26.09-13.55-37.53-23.28c-11.44-9.73-23.18-17.86-22.68-32.81c0.6-22.78,20.59-28.05,20.59-28.05
		s5.4,11.69,18.45,29.85s25.69,26.09,35.62,32.61c9.93,6.52,16.06,5.82,16.06,5.82C429.37,762.03,427.47,769.05,421.65,776.58z
		 M454.56,737.39c-20.49,0.92-35.14-6.97-41.08-13.22s-13-14.91-17.05-20.46c-4.06-5.55-4.47-3.87-6.29-6.85
		c-1.83-2.98-7.25-13.19-11.49-22.67c-4.24-9.47-9.22-26.99-11.4-39.01c-2.18-12.02-1.42-24.05,0.59-34.2
		c2.01-10.15,7.71-16.21,20.03-18.36c0,0,0.62,3.02-0.36,5.38c-0.98,2.36-4.58,6.94-1.93,11.74c2.65,4.8,7.82,1.45,12.29-3.82
		c4.47-5.27,12.39-13.27,18.83-18.54c6.43-5.27,18.79-14.9,31.45-20.69c12.67-5.79,31.35-8.13,39.95-8.21
		c8.6-0.08,26.74,3.6,41.52,14.62c14.78,11.02,19.16,17.12,24,29.87c4.85,12.74,6.72,20.88,5.47,36.12
		c-1.25,15.25-1.17,19-6.33,32.06c-5.16,13.06-10.95,27.68-26.35,40.81c-15.4,13.14-27.17,17.39-33.63,21.49
		C486.32,727.55,475.05,736.47,454.56,737.39z M520.23,810.88c-3.32-1.28-5.36-3.13-6.93-4.94c-1.85,1.04-6.5,0.24-8.69-3.13
		c-2.18-3.37-5.13-9.07-8.54-18.61c-3.42-9.54-7.4-24.73-8.26-28.38c-0.07-0.32-0.14-0.63-0.19-0.95c-0.28-1.88,0.08-3.6,1.97-4.41
		c0.93-0.4,1.96-0.47,2.96-0.62c0.24-0.04,0.48-0.08,0.72-0.12c1.57-0.33,3.12-0.75,4.66-1.23c6.1-1.93,11.81-4.9,17.32-8.11
		c10.4-6.05,19.01-11.08,26.43-18.25c0.34,10.66-1.11,35.38-2.13,49.11c-1.02,13.73-5.12,37.5-6.45,41.82
		c-1.33,4.32-5.08,2.99-6.55,1.61C525.07,813.3,523.56,812.16,520.23,810.88z M522.38,859.08c-2.17,8.4-7.68,25.74-7.68,25.74
		c-6.38-0.63-16.52-6.76-18.21-9.61c-1.69-2.85-3.09-3.77-5.55-6.13c-2.46-2.37-2.08-4.01-0.72-9.13c0,0,1.06-4.25,2.85-6.71
		c1.79-2.46,2.17-3.24,4.83-9.32c2.66-6.09,6.13-8.11,6.13-8.11s1.3,0.82,4.97,2.8c3.67,1.98,12.27,3.43,15.31,5.65
		C527.35,846.48,524.55,850.68,522.38,859.08z M456.82,940.07c0.14-1.26,0.34-2.5,0.6-3.73c0.84-4.04,2.22-7.95,3.59-11.83
		c1.65-4.66,3.38-9.29,5.12-13.92c4.2-11.2,5.11-12.88,6.51-15.54c1.4-2.66,3.29-3.15,5.18-1.26c1.89,1.89,4.9,4.48,11.97,8.12
		c7.07,3.64,13.86,6.02,15.4,7.77c1.54,1.75-2.52,11.76-5.88,19.03c-3.36,7.28-12.6,24.28-13.79,29.11s-2.87,3.15-5.95,2.03
		c-3.08-1.12-4.76-2.94-8.54-3.57c-3.78-0.63-9.24-0.98-11.76-3.64c-0.43-0.45-0.8-0.96-1.11-1.5
		C456.3,947.87,456.42,943.68,456.82,940.07z M450.39,973.28c0,0,4.13,1.54,7.28,4.06s5.67,3.64,8.26,3.85
		c2.59,0.21,4.9,0.77,5.11,2.45c0.21,1.68-5.11,10.15-9.8,18.4c-4.69,8.26-12.32,20.22-13.23,20.92c-0.91,0.7-2.8,0.28-2.8,0.28
		L450.39,973.28z M359.3,1193.07c0,0,28.45-42.53,57.72-87.55c29.28-45.02,64.9-97.22,95.28-163.22
		c30.38-66.01,40.32-138.64,43.64-171.23c3.31-32.59,1.38-66.28,1.38-66.28s18.23-19.88,27.34-58c8.88-37.14-5.58-77.43-31.37-99.39
		c-1.31-1.11-2.12-2.69-2.26-4.39c-0.63-8.07-2.69-32.88-5.87-56.95c-3.87-29.27-5.8-43.08-9.11-55.51
		c-3.31-12.43-3.87-18.23-1.1-23.2c2.76-4.97,10.77-12.98,14.91-6.35c4.14,6.63,11.32,16.57,17.12,41.43
		c5.8,24.86,9.94,34.8,19.61,70.98c9.67,36.18,11.05,51.37,11.88,61.31c0.83,9.94,6.08,7.73,11.6,7.46
		c23.2-2.76,72.08-5.52,101.91-5.8c29.83-0.28,80.92,4.97,87.82,5.8c6.9,0.83,9.39,1.1,9.94-5.52c0.55-6.63,4.14-62.42,10.49-104.4
		c6.35-41.98,21.28-109.11,21.28-109.11s5.43,2.91,7.56,5.04c2.13,2.13,4.75,3.88,7.66,5.53c2.91,1.65,5.82,6.21,4.27,15.03
		c-1.55,8.82-5.42,16.15-12.16,54.14c-6.73,37.99-11.49,82.67-17.57,134.87c-6.08,52.2-8.29,83.41-7.46,138.37
		c0.83,54.96,1.66,85.62-1.38,125.66c-3.04,40.05-11.6,98.32-7.46,150.79c4.14,52.47,4.14,67.11,8.56,93.35
		c4.42,26.24,10.49,39.49,10.49,39.49s-31.76,0.28-95.56,4.14c-63.8,3.87-112.96,14.91-191.39,38.67
		C468.66,1191.97,409.84,1203.84,359.3,1193.07z M300.49,1524.55c2.6-2.42,5.9-5.89,11.11-15.35c5.22-9.47,16.42-31.1,35.74-56.22
		c19.32-25.11,42.08-43.94,62.9-59.71c20.81-15.77,30.4-23.59,33.8-26.11c3.41-2.52,8.07-5.55,8.7-5.17
		c0.63,0.38,5.17,3.41,12.23,0.88c9.71-4.41,8.83-18.79,6.43-30.52c-2.4-11.73-10.97-43.14-13.5-53.61
		c-2.52-10.47-3.66-12.24-4.92-16.65c-1.26-4.41-0.25-6.18-2.14-16.9c-1.89-10.72-5.42-38.85-5.42-38.85s9.08-0.88,31.91-4.54
		c22.83-3.66,42.89-8.83,90.69-21.57c47.81-12.74,77.2-18.54,77.2-18.54s0,2.77-1.01,10.47c-1.01,7.69-3.41,16.27-4.16,21.06
		c-0.76,4.79,0.38,5.68,0.25,8.07c-0.13,2.4-2.52,9.71-4.54,23.97c-2.02,14.25-5.05,26.74-5.68,34.06
		c-0.63,7.32-2.27,7.95-3.28,11.73c-1.01,3.78-0.25,7.19-0.88,13.87c-0.63,6.69-5.55,22.96-8.58,33.93
		c-3.03,10.97-7.57,25.86-9.59,31.79c-2.02,5.93-2.4,12.24-6.05,18.04c-3.66,5.8-9.08,21.82-12.87,27.88
		c-3.78,6.05-6.31,11.23-7.06,16.9c-0.76,5.68-3.78,6.56-5.05,7.44c-1.26,0.88-2.65,2.65-10.09,11.35
		c-7.44,8.7-23.71,25.1-36.83,36.71c-13.12,11.6-16.52,14.13-20.94,16.27c-4.41,2.14-3.03,5.3-4.92,6.18s-7.69,4.16-23.97,16.78
		c-16.27,12.61-32.92,22.07-53.1,35.57c-20.18,13.5-36.79,32.15-47.26,41.17c-10.48,9.02-12.85,8.83-14.56,11.09
		c-1.71,2.25-3.47,3.72-5.97,0.61c-2.5-3.11-13.52-14.99-23.03-26.38c-9.5-11.39-29.91-31.98-35.09-37.1
		C295.8,1528.02,297.2,1526.56,300.49,1524.55z M262.05,1568.18c3.38-1.96,7.11-3.67,10.61-8.24c3.5-4.56,7.53-9.66,10.49-12.62
		c2.96-2.96,6.04-6.99,6.04-6.99s3.67,2.61,9.18,12.56c5.51,9.95,17.12,24.89,23.11,33.6c5.98,8.71,7.88,12.44,12.27,17.42
		c4.38,4.98,7.7,6.81,5.39,10.78c-2.31,3.97-8.12,6.93-12.56,9.72c-4.44,2.78-8.12,5.87-11.91,9.3s-8.06,8-11.79,9.24
		c-3.26-6.58-4.33-12.68-15.58-29.57c-11.26-16.89-26.37-32.65-33.24-37.8C254.05,1575.59,258.67,1570.14,262.05,1568.18z
		 M255.83,1717.72c-9.11,25.86-10.02,38.98-12.2,71.58c-2.19,32.6-4.92,47.35-5.83,63.93c-0.91,16.57,3.31,30.7-3.17,31.8
		c-6.48,1.1-13.07,0.11-19.99-9.22c-6.92-9.33-16.91-25.8-23.17-36.24c-6.26-10.43-19.88-34.7-19.88-51.61s1.98-43.15,5.49-58.86
		s13.18-37.77,14.28-39.42c1.1-1.65,8.13-3.07,8.78-9.99c0.66-6.92-6.81-8.24-9.77-9.44c-2.97-1.21-5.71-5.93-7.8-17.35
		c-2.09-11.42-5.05-17.79-5.05-22.18s2.2-6.26,8.78-10.98c6.59-4.72,33.27-26.02,33.27-26.02s4.7,6.51,11.42,11.53
		c7.36,5.49,23.71,22.63,31.7,30.46c7.99,7.82,16.63,20.78,21.92,25.02c5.3,4.24,8.56,7.34,4.4,11.49S264.94,1691.85,255.83,1717.72
		z M650.71,1786.12c-43.67,0.96-81.45-0.48-126.57,0.72c-45.12,1.2-92.94,0.6-149.91,2.05s-107.73,0.05-107.73,0.05
		s0.36-29.62,3.09-52.52c2.73-22.9,16.49-46.78,21.9-55.4c5.41-8.62,10.96-9.93,15.19-10.23c4.24-0.29,9.5-2.48,14.75-6.87
		s22.2-15.48,31.7-20.31c9.5-4.82,35.35-23.81,63.4-46.16c28.05-22.35,43.09-33.89,65.15-50.84c22.06-16.95,66.91-44.85,94.08-77.28
		c27.17-32.43,46.75-62.52,57.85-94.22c11.1-31.7,22.06-74.91,30.86-118.01c8.8-43.1,12.14-81.04,12.14-81.04s8.8,28.23,18.51,52.81
		s32.78,69.81,66.47,120.19c12.44,21.25,11.84,20.64,15.78,23.37c3.95,2.73,5.77,5.16,3.64,12.75c-2.12,7.59-7.04,27.45,6.74,51.88
		c13.78,24.42,19.41,18.16,20.25,32.15c0.84,13.99,4.8,50.52,8.14,83.71c3.34,33.19-1.46,77.86-6.89,101.24
		c-5.43,23.38-12.62,43.39-12.62,51.09c0,7.7,0.36,10.59,5.29,14.32c4.93,3.73,6.26,5.41,3.25,11.67
		c-3.01,6.26-8.66,16.84-9.38,28.88c-0.72,12.03,6.38,15.64,6.38,15.64s-12.63,9.62-20.21,10.23c-7.58,0.6-7.94-1.2-26.23-1.2
		C737.46,1784.8,694.38,1785.16,650.71,1786.12z M818.85,1727.95c0,0,10.35,0.87,15.81,0.4c5.45-0.47,7.75-2.45,7.75-2.45
		s-0.16,7.35-7.11,18.26c-6.95,10.91-12.49,17.31-17.86,20.87c-1.5-8.06-1.19-12.88,0.4-18.73
		C819.4,1740.44,819.24,1730.64,818.85,1727.95z M841.3,1686.85c-1.54,8.03-0.83,17.72-0.83,17.72s-4.25-1.06-10.04-1.65
		c-5.79-0.59-7.92-1.89-7.56-3.78s3.66-10.16,5.32-16.54c1.65-6.38,4.37-17.84,4.73-22.21c0.35-4.37,2.72-5.79,6.14-5.79
		s10.52-0.35,10.52-0.35S842.83,1678.81,841.3,1686.85z M849.45,1642.3c-4.02-0.47-9.92-2.01-11.22-2.36
		c-1.3-0.35-2.13-2.6-1.18-9.69c0.95-7.09,2.13-30.48,0-54.94c-2.13-24.46-7.68-50.92-11.46-67.34
		c-3.78-16.42-9.69-36.04-9.69-36.04s17.01,9.1,26.11,13.35c9.1,4.25,17.37,7.8,26.35,10.16c8.98,2.36,16.19,2.13,15.24,8.39
		s-3.31,21.15-8.03,46.2c-4.73,25.05-4.49,31.55-10.87,52.58c-6.38,21.03-8.86,29.66-9.92,34.97
		C853.7,1642.89,853.47,1642.78,849.45,1642.3z M923.85,1790.65c-2.66,7.91-5.51,27.35-6.25,43.03c-0.83,17.48-0.28,41.01-0.4,53.73
		c-0.62,5.59-4.41,3.84-13.63,4.05s-17.68,0.82-28.08,2.36c-10.4,1.54-17.83,0.67-20.09,0.15c-2.26-0.51-11.38-5.69-18.76-10.51
		c-7.38-4.82-19.12-12.09-24.39-11.63c-5.28,0.46-14.97,6.3-20.14,12.4s-11.74,6.51-21.99,6.92c-10.25,0.41-17.27-1.82-35.41,0.17
		c-18.15,1.98-20.13,2.82-49.75,1.77c-24.26-0.85-53.98-2.41-63.93-2.94c-1.89-0.1-3.23-1.89-2.79-3.72
		c0.83-3.47,2.68-8.96,6.65-14.05c6.45-8.27,13.39-12.57,41.34-20.34c27.95-7.77,59.03-17.76,87.82-30.65
		c28.79-12.89,56.54-30.66,71.09-44.38c14.55-13.72,17.56-21.1,18.08-23.18c0.33-1.33,0.83-2.76,1.65-3.88c0.58-0.8,1-1.1,1.46-1.06
		c0.43,0.04,0.91,0.38,1.61,0.87c2.78,1.97,5.61,3.88,8.48,5.73c5.55,3.58,11.27,6.93,17.16,9.92
		c12.82,6.52,40.63,18.47,48.85,21.99C923.67,1787.95,924.29,1789.36,923.85,1790.65z M933.01,1764.95
		c-2.08,3.12-3.33,6.34-3.33,6.34s-38.56-14.55-53.84-20.27c-15.28-5.72-24.74-12.68-24.94-18.71c-0.21-6.03-0.1-12.68,12.58-7.28
		c12.68,5.4,31.59,11.54,49.47,21.83C930.83,1757.16,935.09,1761.83,933.01,1764.95z M1060.25,1828.94
		c0.24,4.46-4.08,11.9-6.14,15.07s-5.33,9.69-5.33,9.69s-16.51-2.69-25.1-4.27c-8.59-1.58-28.84-8.97-41.55-13.68
		c-12.72-4.7-30.9-12.24-37.09-14.44c-6.19-2.21-5.42-8.45-3.5-16.27s6.67-21.78,10.08-31.67c3.41-9.88,5.23-14.78,7.82-17.61
		c2.59-2.83,3.5-4.99,3.74-6.05c0.24-1.06,0.53-3.07,2.83-3.36c1.78-0.24,11.71,12.28,18.38,18.19c6.67,5.9,22.74,20.49,31.77,27.78
		c9.02,7.29,18.57,14.97,21.88,18.67c3.31,3.69,8.78,7.05,12.57,9.5C1054.39,1822.95,1060.01,1824.48,1060.25,1828.94z
		 M1265.96,1782.39c-5.1-0.29-72.5-0.87-107.87-0.29c-35.38,0.58-114.28,0.58-118.21,0.73c-3.93,0.15-6.7-0.87-8.15-2.04
		c-1.46-1.16-6.11-6.26-22.56-23.15c-16.45-16.89-25.48-28.82-26.5-29.84c-1.02-1.02-0.25-4.55,1.16-6.26
		c14.96-18.01,35.73-53.86,48.13-88.1c12.39-34.24,18.92-66.91,18.92-66.91c37.17,13.74,66.01,28.84,92.14,47.54
		c26.13,18.7,44.37,41.64,56.91,55.71c12.55,14.07,27.13,31.45,27.13,31.45s1.78-0.68,6.95,2.63c5.17,3.31,3.99,9.96,12.43,15.93
		c8.44,5.97,16.6,3.64,18.93,2.91c2.33-0.73,4.51,2.62,6.55,13.68c2.04,11.06,2.62,32.46,2.04,38.58
		C1273.38,1781.08,1271.05,1782.68,1265.96,1782.39z M1332.58,1615.36c10.91-21.35,15.37-36.37,15.37-36.37s28.39,7.27,36.96,9.97
		c8.57,2.7,22.76,8.68,25.11,10.56c2.35,1.88,5.4,3.87,6.81,4.34c1.41,0.47,6.92,0.47,5.16,7.27s-12.55,32.03-17.95,41.89
		c-5.4,9.86-8.92,17.95-12.44,19.71c-3.52,1.76-7.98,2.23-10.33,2.93c-2.35,0.7-3.87,1.41-6.34-1.17
		c-2.46-2.58-5.28-5.98-10.09-2.82c-4.81,3.17-5.75,7.27-4.46,16.66c1.29,9.39-2.11,43.41-5.75,60.31s-8.8,29.1-15.14,41.65
		c-6.34,12.55-7.63,17.25-19.36,38.72c-11.73,21.47-30.62,47.29-30.62,47.29s-6.22-6.69-10.33-9.39c-4.11-2.7-8.45-4.46-4.22-11.26
		c4.22-6.81,11.15-20.65,13.49-43.3c2.35-22.65,3.75-25.34,2.23-51.98c-1.53-26.63-7.86-38.25-9.5-40.95
		c-1.64-2.7-3.87-4.81-0.7-10.21c3.17-5.4,14.43-24.05,21.71-40.6C1309.46,1652.09,1321.66,1636.72,1332.58,1615.36z
		 M1310.63,1602.57c5.63-8.57,9.74-13.38,9.74-13.38s-10.44,25.58-24.05,49.16c-13.61,23.58-16.9,31.33-19.95,38.84
		c-3.05,7.51-9.03,17.13-11.03,19.24c0,0-8.57-6.45-11.97-9.03c-3.4-2.58-5.51-3.05-5.51-3.05s19.24-21.71,30.27-36.02
		C1289.16,1634.02,1305,1611.14,1310.63,1602.57z M1106.18,1430.54c13.59,6.86,27.18,13.77,40.43,21.26
		c18.89,10.68,53.86,36.73,71.81,49.4c17.95,12.67,44.47,33.56,55.15,42.71c10.68,9.15,25.58,23.47,26.87,24.76s0.35,3.75-2.58,9.86
		c-2.93,6.1-18.42,37.9-31.8,58.43c-13.38,20.53-28.04,46.35-28.04,46.35s-19.83-24.41-30.62-36.37
		c-10.79-11.97-43.3-44.59-79.79-63.01s-63.22-22.4-69.19-22.3c-5.96,0.1-5.76-2.22-5.66-6.57c0.1-4.35,1.21-6.57,2.12-7.68
		c0.91-1.11-0.3-4.95,2.73-23.35c3.03-18.4,7.58-38.67,13.34-55.75s16.1-38.39,18.6-41.39c2.5-3,3.83-3.1,5.63-1.84
		C1098.42,1427.31,1102.64,1428.76,1106.18,1430.54z M1191.42,1338.97c-24.77,11.1-24.9,9.8-48.22,20.57s-52.43,29.92-67.87,47.45
		c-15.44,17.53-23.16,36.35-29.92,59.35c-6.75,23-14.48,55.17-14.64,73.99c-3.38,9.65-3.22,23.96-13.19,53.4
		c-9.97,29.43-22.68,62.08-34.1,81.22s-35.61,56.21-37.97,60.08s-3.37,3.83-6.54,1.86c-3.17-1.97-14.45-6.65-26.34-10.48
		c-11.89-3.83-46.33-11.07-49.47-11.21c-3.14-0.14-5.6-0.96-5.19-3.14c0.41-2.19,6.81-20.96,11.17-32.82s11.62-37.04,21.06-68.76
		c9.44-31.72,11.86-56.65,17.43-85.46c5.57-28.81,11.38-43.09,14.77-62.7c3.39-19.61,3.39-37.28,7.02-71.18
		c3.63-33.89,15.25-53.75,31.47-76.5c16.22-22.76,37.77-46.48,57.38-68.51c19.61-22.03,72.87-77.96,104.59-111.85
		c31.72-33.89,53.15-60.85,63.2-74.79c10.04-13.94,18.19-26.11,21.27-35.44c-9.1,5.08-24.1,24.46-42.65,44.9
		c-18.55,20.44-54.7,53.4-67.58,67.23c-12.88,13.82-53.4,52.22-73.37,72.31c-19.97,20.09-51.99,57.07-69.59,77.15
		c-17.6,20.09-26.35,34.38-34.62,49.74s-12.05,27.53-16.66,53.17c-4.61,25.64-5.2,41.12-6.62,56.95
		c-1.42,15.83-4.61,27.41-5.91,29.54c-1.3,2.13-5.67-0.35-14.18-3.54c-8.51-3.19-14.89-5.91-23.51-8.98
		c-8.62-3.07-16.54-7.09-30.36-20.2c-13.82-13.11-20.32-32.61-19.97-42.89c-0.41-12.51,12.35-50.95,46.13-103.84
		c33.78-52.89,62.78-84.96,81.61-105.26c18.84-20.3,43.54-52.95,55.47-68.65c11.93-15.7,33.91-42.91,60.49-74.72
		c26.58-31.81,75.69-73.93,105.22-100.77c30.3-27.22,74.47-70.1,77.68-71.52c3.21-1.41,3.47,1.93,6.55,2.7s9.63,0.13,27.35,2.44
		s49.18,11.17,49.18,11.17c-0.64,5.26-5.01,7.83-26.06,36.46c-21.06,28.63-38.52,52.64-58.03,88.98
		c-19.52,36.34-37.11,83.2-44.55,115.81c-7.45,32.61-10.01,59.83-12.07,81.4c-2.05,21.57,0.07,48.27,1.17,64.01
		c1.1,15.75,3.44,23.65,4.03,34.49c-0.51,11.28,10.08,10.68,21.42,10.86c11.34,0.18,18.56,0.36,26.32-0.48
		C1220.55,1327.98,1215.18,1328.4,1191.42,1338.97z M1697.42,1277.01c-7.75,1.94-24.21,14.09-32.82,35.18
		c-8.61,21.09-9.36,35.51-17,53.47c-7.64,17.97-20.01,33.25-38.52,40.67c-18.51,7.42-51.86,14.2-78.76-4.2
		c18.72-1.51,41.96,0,49.6,1.29c7.64,1.29,15.17,2.37,18.61,1.4c3.44-0.97,4.84-4.52,6.13-6.24c1.29-1.72,6.67-3.98,5.06-7.53
		c-1.61-3.55-17.3-37.02-17.5-76.99c-0.2-39.97,5.08-78.16,6.74-97.09c0,0,7.21,4.41,15.39-0.75c8.18-5.16,16.03-7.96,27.11-3.01
		c11.08,4.95,30.13,21.2,43.79,35.4c13.66,14.2,23.13,23.67,23.13,23.67S1705.16,1275.08,1697.42,1277.01z M1694.83,851.58
		c-0.72-3.08-5.38-2.58-11.55-1.51c-6.17,1.08-11.33,0.57-21.09,0.93c-0.07-4.38,1.94-7.03,4.59-7.39s4.45,0.36,8.32-1.08
		c3.87-1.43,13.84-7.89,20.23-14.35c6.38-6.46,4.73-8.11-0.57-7.82c-5.31,0.29-15.57,1.08-15.57,1.08s3.51-4.81,12.48-18.36
		c8.97-13.56,27.54-37.44,27.54-37.44s4.16,1.22,9.18,10.54s3.37,17.65,4.52,40.67c1.15,23.02,4.02,35,4.59,40.53
		c0.57,5.52-1.51,5.45-9.9,8.89c-8.39,3.44-32.71,18.65-57.45,30.56c-24.75,11.91-38.88,21.09-38.88,21.09s-2.44-0.57-0.22-4.95
		c2.22-4.38,18-38.8,20.01-43.9c2.01-5.09,5.24-2.87,10.4-2.87c7.23,0.16,14.29-1.73,20.94-4.45
		C1690.67,858.39,1695.55,854.66,1694.83,851.58z M1685.62,915.39c37.04-23.37,55.12-41.89,55.12-41.89s2.48,18.24,15.49,59.52
		c13.01,41.28,34.29,70.91,34.29,70.91s-26.66,20.46-44.03,39.38c-17.37,18.92-26.62,33.75-32.7,49.14
		c-6.08,15.4-7.04,25.27-7.59,29.9c-0.55,4.63-2.28,3.45-11.46,4.56c-9.18,1.1-18.78,7.87-24.99,14.71
		c-6.21,6.84-5.66,9.67-5.11,11.88c0.55,2.21-0.34,3.66-3.94,4.83c-3.59,1.17-8.49,0.76-16.5,5.59
		c-8.01,4.83-15.47,12.36-17.33,17.88c-1.86,5.52-2.35,7.53-6.7,9.39c-4.35,1.86-15.68,6.19-18.32,8.4c-2.65,2.2-2.65,1.54-2.2-5.51
		c0.44-17.42-2.43-45.64-3.53-64.82s-5.51-56.22,0-95.24s14.99-64.6,17.2-74.3c2.2-9.7,6.39-13.45,7.72-13.67
		C1622.34,945.82,1648.58,938.76,1685.62,915.39z M1717.88,1261.34c-39.09-64.96-74.91-71.3-74.91-71.3
		c2.71-8.32,8.87-18.64,20.63-20.45c13.21-1.99,28.77,6.7,48.31,26.06c19.54,19.36,24.07,30.58,25.51,39.81
		C1738.87,1244.7,1728.92,1253.38,1717.88,1261.34z M1766.01,1209.05c-2.17,4.16-7.24,10.86-7.24,10.86s-8.87-20.99-27.69-37.82
		c-18.82-16.83-32.03-28.59-56.64-27.32c0,0,7.6-8.69,27.5-7.24c19.9,1.45,48.86,24.07,56.28,36.73
		C1765.65,1196.92,1768.18,1204.89,1766.01,1209.05z M1865.99,660.55c7.82,9.89,22.54,31.5,26.68,50.36
		c4.14,18.86,3.91,49.21,2.76,65.08c-1.15,15.87-3.22,59.1-3.22,59.1c-9.66-15.87-33.11-30.12-37.25-32.19
		c-4.14-2.07-6.44-2.07-8.05,0.46c-1.61,2.53-3.91,8.28,0.69,13.11s21.62,24.84,30.12,37.94c8.51,13.11,9.66,26.22,9.66,26.22
		c11.5,58.87,12.42,94.74,12.42,94.74s3.22,45.53-11.73,81.87c-14.95,36.33-35.18,64.62-53.35,84.4s-47.83,45.07-47.83,45.07
		c-21.62-48.52-72.44-59.33-72.44-59.33c4.14-23,14.72-33.57,28.74-52.89c14.03-19.32,51.05-45.53,51.05-45.53
		s38.86-27.14,48.29-32.88c9.43-5.75,9.43-10.35,9.43-12.65s-1.61-6.67-9.66-5.06c-8.05,1.61-10.12,3.45-18.86,7.13
		c-8.74,3.68-25.53,13.11-25.53,13.11c-3.68-6.21-19.55-51.05-24.84-77.73c-5.29-26.68-11.04-49.67-14.49-65.54
		c-3.45-15.87-5.52-48.98-7.36-71.29c-1.84-22.31-20.24-30.81-20.24-30.81c2.99-5.06,54.73-55.65,54.73-55.65
		c25.99-23.46,49.44-66.23,49.44-66.23S1858.17,650.66,1865.99,660.55z M1794.81,581.62c14.04,3.01,29.58,14.79,34.84,20.55
		c5.26,5.76-0.5,8.27-8.52,20.8c-8.02,12.53-42.86,52.88-56.64,64.66c-13.79,11.78-35.34,36.34-55.14,61.66
		c-19.8,25.31-41.61,57.4-61.91,87.97c-20.3,30.58-35.59,63.66-51.88,111.78c-16.29,48.12-24.56,91.23-27.32,132.59
		c-2.76,41.36,0.25,72.18,2.51,100c2.26,27.82,4.51,79.95,1,122.56c-3.51,42.61-1.75,44.86,10.78,77.2
		c-24.81-3.01-70.68,0-101.26-3.76c-30.58-3.76-63.91-13.28-115.79-35.59c-51.88-22.31-84.47-32.58-119.55-35.59
		c-35.09-3.01-57.4,2.76-57.4,2.76s-1.75-77.2,4.76-122.06c6.52-44.86,18.05-85.47,38.6-132.34
		c20.55-46.87,51.88-89.98,83.21-130.83c31.33-40.85,53.39-73.69,79.95-124.07c26.57-50.38,30.83-67.92,44.86-104.27
		c14.04-36.34,40.29-99.7,47.5-112.53c7.21-12.83,21.08-33.81,23.89-40.09c2.81-6.28,7.12-6.18,15.45-1.59
		c8.34,4.59,16.11,6.65,16.11,6.65c-3.57,3.32-32.27,41.79-35.53,51.57c-3.26,9.77-4.76,9.27-8.27,18.05
		c-3.51,8.77,2.76,13.53,20.05,26.07c17.29,12.53,37.6,29.58,62.16,46.37c24.56,16.79,55.64,34.59,61.16,36.09
		c5.51,1.5,5.51,3.51,6.02,7.27c0.5,3.76,6.77,7.27,16.79,4.26c10.03-3.01,18.05-9.27,36.84-25.82
		c18.8-16.54,49.38-49.88,71.43-83.96C1795.56,593.9,1794.81,581.62,1794.81,581.62z M1833.98,322.44
		c-4.42-8.69-14.88-16-23.48-17.05c-8.61-1.05-15.2,2.09-21.55,8.52c-6.35,6.43-7.08,11.98-15.92,17.85
		c-8.85,5.87-14.15,3.78-22.2,6.76c-8.04,2.98-17.45,12.95-17.85,21.71c-0.4,8.77,6.76,13.83,13.59,13.59
		c6.84-0.24,14.07-7.64,17.53-10.13c3.46-2.49,9.73-4.5,17.53-0.88c7.8,3.62,12.79,9.33,12.63,13.75
		c-0.16,4.42-2.65,17.69-11.82,23.16c-9.17,5.47-16.41,5.63-35.87,10.53c-19.46,4.91-23.64,16.89-24.37,26.78
		c-0.72,9.89,2.73,24.29,3.78,37.48c1.05,13.19,7.08,22.6,11.82,29.35c4.74,6.76,21.47,18.17,25.81,21.23
		c4.34,3.06,6.84,5.39,9.25,5.71c2.41,0.32,3.86,2.01,2.65,5.95c-1.21,3.94-5.15,19.46-6.92,24.37c-1.77,4.91-3.06,5.39-6.03,5.31
		s-8.52-0.4-20.51-0.4c-11.98,0-35.46,2.09-46.24,4.5c-10.78,2.41-20.1,7.64-26.94,11.02c-6.84,3.38-6.84,8.52-3.46,12.46
		c3.38,3.94,14.8,3.06,39.41-1.29c24.61-4.34,58.46-2.98,70.53-3.7c-3.22,7.96-18.17,27.66-28.71,41.42
		c-10.53,13.75-34.66,41.34-50.58,54.04c-15.92,12.71-32.33,26.78-37.56,30.88c-5.23,4.1-6.59,1.37-17.05-6.35
		c-10.45-7.72-34.1-24.69-44.47-32.33c-10.37-7.64-43.27-34.58-59.99-46.48c-16.73-11.9-20.91-16-20.91-16s7.16-11.58,13.91-24.13
		c6.76-12.55,16.81-28.55,18.34-32.01c1.53-3.46,3.94-6.03,6.84-5.39c2.9,0.64,10.45,1.45,18.98,2.57
		c8.52,1.13,22.76,1.13,33.13-5.15c10.37-6.27,18.01-13.83,19.46-18.17c1.45-4.34,1.05-10.53,2.57-11.98
		c1.53-1.45,5.39-0.56,10.05-1.05c4.66-0.48,19.62-5.95,32.65-15.84c13.03-9.89,18.9-20.59,20.35-23.96
		c1.45-3.38,2.41-4.66,3.94-3.62c1.53,1.05,2.65,2.41,7.56,4.58c4.91,2.17,11.1,0.72,12.79-1.37c1.69-2.09,1.29-3.94-0.16-6.03
		c-1.45-2.09-10.21-7.8-14.39-11.02c-4.18-3.22-3.62-7.88-3.54-10.53c0.08-2.65-0.56-15.36-5.15-27.34
		c-4.58-11.98-5.95-14.72-17.21-29.03c-11.26-14.31-21.79-18.66-26.14-23.48c-4.34-4.83-5.63-11.98-1.21-15.36
		c4.42-3.38,17.13-9.01,22.76-9.89c5.63-0.88,16.73-0.32,19.7-3.86c2.98-3.54,1.45-8.44-0.08-11.1c-1.53-2.65-3.54-7.32-2.73-13.99
		c1.77-12.46,13.83-11.82,31.85-9.09c18.01,2.73,20.19,6.27,24.85,10.37c4.66,4.1,8.6,4.42,12.63,3.78s4.58-2.25,3.86-6.59
		c-0.72-4.34-6.11-12.46-2.98-16.73c3.14-4.26,7.08-4.02,25.01-4.74c17.93-0.72,25.89-1.45,39.08-2.09
		c13.19-0.64,13.59,7.56,16.24,19.22s2.9,22.44,2.9,22.44S1838.4,331.13,1833.98,322.44z"/>
</g>
</svg>
