<?xml version="1.0" encoding="utf-8"?>
<!-- Generator: Adobe Illustrator 26.4.1, SVG Export Plug-In . SVG Version: 6.00 Build 0)  -->
<svg version="1.1" id="Layer_1" xmlns="http://www.w3.org/2000/svg" xmlns:xlink="http://www.w3.org/1999/xlink" x="0px" y="0px"
	 viewBox="0 0 1999.44 1999.44" style="enable-background:new 0 0 1999.44 1999.44;" xml:space="preserve">
<g>
	<g>
		<g>
			<g>
				<path d="M1077.29,1389.15c-2.96-2.77-1.18-4.35,2.57-9.58c3.75-5.23,0.49-9.09,0.49-16c0-6.91-1.19-12.54-5.83-15.31
					s-7.7-2.67-12.64-3.56s-7.21-2.67-12.34-2.77s-9.38-0.49-18.86-0.79c-9.48-0.3-13.04-1.38-21.82-1.38s-9.97,0.59-15.31,0.89
					c-5.33,0.3-10.03,1.48-10.03,7.01s0.95,18.66,1.25,23.9c0.3,5.23,0,24.49,0,33.4s-0.59,10.45-1.19,16.37
					c-0.59,5.93,3.26,5.43,8.89,5.43s30.12,1.09,38.02,1.09c2.96,0,10.57-0.2,19.65-0.89c9.09-0.69,13.92-2.17,21.53-7.11
					c7.6-4.94,12.05-12.25,12.05-18.86S1080.25,1391.91,1077.29,1389.15z M1026.78,1353.25c4.05,0.18,9.82,1.54,11.41,6.12
					c1.59,4.58,2.2,4.84,2.2,9.73c0,4.89-2.77,8.37-5.55,9.6c-2.77,1.23-5.11,1.32-7.31,1.32c-2.2,0-4.49-1.24-4.49-6.74
					c0-7.53,0.62-9.29,0.62-14.36C1023.65,1353.86,1022.73,1353.07,1026.78,1353.25z M1037.28,1412.56
					c-2.77,0.04-6.17,1.02-8.72,1.79c-2.55,0.77-6.51-0.47-6.51-3.96s0.55-8.59,0.72-10.72c0.17-2.13,2.04-4.3,7.15-4.3
					c6.93,0,12.42,7.36,12.42,11.57C1042.35,1411.16,1040.05,1412.52,1037.28,1412.56z"/>
				<path d="M1424.11,1387.86c-2.96-2.77-1.19-4.35,2.57-9.58c3.75-5.23,0.49-9.09,0.49-16c0-6.91-1.19-12.54-5.83-15.31
					c-4.64-2.77-7.7-2.67-12.64-3.56c-4.94-0.89-7.21-2.67-12.34-2.77c-5.14-0.1-9.38-0.49-18.86-0.79
					c-9.48-0.3-13.04-1.38-21.82-1.38c-8.79,0-9.97,0.59-15.31,0.89c-5.33,0.3-10.03,1.48-10.03,7.01c0,5.53,0.95,18.66,1.25,23.9
					s0,24.49,0,33.4s-0.59,10.45-1.19,16.37s3.26,5.43,8.89,5.43c5.63,0,30.12,1.09,38.02,1.09c2.96,0,10.57-0.2,19.65-0.89
					c9.09-0.69,13.92-2.17,21.53-7.11c7.6-4.94,12.05-12.25,12.05-18.86S1427.07,1390.63,1424.11,1387.86z M1373.59,1351.96
					c4.05,0.18,9.82,1.54,11.41,6.12c1.59,4.58,2.2,4.84,2.2,9.73c0,4.89-2.77,8.37-5.55,9.6c-2.77,1.23-5.11,1.32-7.31,1.32
					s-4.49-1.24-4.49-6.74c0-7.53,0.62-9.29,0.62-14.36C1370.47,1352.58,1369.54,1351.78,1373.59,1351.96z M1384.1,1411.28
					c-2.77,0.04-6.17,1.02-8.72,1.79c-2.55,0.77-6.51-0.47-6.51-3.96s0.55-8.59,0.72-10.72c0.17-2.13,2.04-4.3,7.15-4.3
					c6.93,0,12.42,7.36,12.42,11.57C1389.16,1409.87,1386.86,1411.23,1384.1,1411.28z"/>
				<path d="M1151.47,1410.42c-0.82-0.12-1.64-0.16-2.47-0.13c-3.95,0.16-6.59,0.95-9.5,1.05c-3.23,0.11-4.74-0.86-5.6,2.91
					s-0.65,13.35-8.83,13.35s-18.63-1.18-24.34-1.4c-5.71-0.22-9.8,1.51-7.32-6.68c2.48-8.18,3.77-13.68,5.49-21.32
					s8.08-22.51,9.05-32.2c0.97-9.69-1.4-20.57,6.25-22.51s19.06-1.72,34.03-2.15s18.52-1.18,25.52-0.65
					c7,0.54,9.91,0.75,11.42,7.43s4.09,19.6,10.66,39.95c6.57,20.35,9.15,27.57,9.15,31.55s-2.91,5.6-8.18,7.22
					c-5.28,1.62-8.62,1.06-10.88,1.02c-2.26-0.05-6.14,0.28-8.08,0.82c-1.94,0.54-1.94,1.62-4.95,0s-2.15-1.94-4.42-2.26
					c-2.26-0.32-2.91-0.86-3.88-5.92c-0.97-5.06-1.08-8.08-5.38-8.83C1156.2,1411.13,1153.07,1410.66,1151.47,1410.42z
					 M1154.74,1393.54c1.93-0.41,3.44-1.17,1.72-3.93c-1.72-2.75-5.1-12.26-5.92-17.29s-3.44-11.23-3.44-11.23
					s-1.58,3.65-3.79,11.02c-2.2,7.37-3.31,12.26-4.75,17.42c-1.45,5.17,1.1,4.82,6.75,4.82
					C1149.57,1394.37,1152.81,1393.96,1154.74,1393.54z"/>
				<path d="M1277.13,1365.93c0,3.62-0.66,10.44-2.29,14.01c-1.63,3.57-6.98,6.52-9.78,6.52s-4.28,0.56-5.2-6.78
					c-0.92-7.34-0.71-19.05-2.09-23.38c-1.38-4.33,0.56-5.65,4.43-5.35S1277.13,1355.23,1277.13,1365.93z M1229.82,1338.21
					c-7.67-0.79-9.93-0.1-11.05,4.79c-1.13,4.89-0.38,24.6-0.71,33.3c-0.33,8.7,1.13,34.86,1.36,38.48
					c0.24,3.62-1.03,7.48,3.15,8.84c4.19,1.36,14.35,3.62,24.08,1.66c9.74-1.96,11.1-5.47,11.38-8.57s-0.09-4.89,0.94-8.18
					c1.03-3.29,4.37-3.06,5.88,1.08c1.51,4.14,5.55,7.29,8.98,11.76c3.43,4.47,6.16,4.09,9.03,3.01s7.9-0.33,9.5,0.14
					c1.6,0.47,4.8,1.46,9.93,0c5.13-1.46,7.48-3.2,7.01-5.08c-0.47-1.88-4.37-7.43-11.29-13.17s-2.92-7.06,0.24-8.89
					c3.15-1.83,8.8-3.72,13.41-10.21c4.61-6.49,4.66-13.17,4.66-22.34c0-9.17-5.2-16-12.69-21.44s-10.81-4.17-19.54-4.17
					s-12.24-1-21.12-1C1256.36,1338.21,1237.49,1339,1229.82,1338.21z"/>
				<path d="M1502.67,1338.48c10.39,0,11.89,0.49,17,0.67c5.11,0.18,7.49-0.53,7.05,4.4s0.79,8.46-2.38,9.6
					c-3.17,1.15-15.94,2.55-26.95,2.91c-11.01,0.35-12.42,0.79-13.12,4.23c-0.7,3.44-0.88,11.89,0.88,13.3
					c1.76,1.41,3.08,1.32,9.34,0.62c6.25-0.7,9.42,0.09,9.69,5.46s1.15,8.37-3.61,8.63c-4.76,0.26-11.19,0.53-13.92,0.79
					c-2.73,0.26-3.61-0.44-4.05,4.32s-0.88,12.07,2.64,13.92s7.58,0.88,16.03,0.97s15.57,1.1,19,1.6s4.95,2.21,4.95,5.29
					s-0.76,10.57-5.95,11.13c-5.19,0.56-15.28,0.89-24.93,0.26c-9.65-0.63-11.88-0.76-13.98-1.25s-2.85,0.62-12.25,0.62
					c-9.4,0-7.59-0.77-13.84-0.71c-6.25,0.06-11.35-3.61-11.35-9.03c0-5.42,1.74-7.16,0.64-13.22s0.45-21.28,0.9-29.4
					c0.45-8.12,0.45-22.44,0.45-27.73c0-5.29,3.03-6.38,13.86-6.58C1470.2,1339.15,1488.65,1338.48,1502.67,1338.48z"/>
				<path d="M1820.79,1337.85c10.39,0,11.89,0.49,17,0.67c5.11,0.18,7.49-0.53,7.05,4.4c-0.44,4.93,0.79,8.46-2.38,9.6
					c-3.17,1.15-15.94,2.55-26.95,2.91c-11.01,0.35-12.42,0.79-13.12,4.23c-0.7,3.44-0.88,11.89,0.88,13.3
					c1.76,1.41,3.08,1.32,9.34,0.62s9.42,0.09,9.69,5.46s1.15,8.37-3.61,8.63c-4.76,0.26-11.19,0.53-13.92,0.79
					c-2.73,0.26-3.61-0.44-4.05,4.32c-0.44,4.76-0.88,12.07,2.64,13.92c3.52,1.85,7.58,0.88,16.03,0.97c8.46,0.09,15.57,1.1,19,1.6
					s4.95,2.21,4.95,5.29c0,3.07-0.76,10.57-5.95,11.13s-15.28,0.89-24.93,0.26c-9.65-0.63-11.88-0.76-13.98-1.25
					s-2.85,0.62-12.25,0.62c-9.4,0-7.59-0.77-13.84-0.71c-6.25,0.06-11.35-3.61-11.35-9.03s1.74-7.16,0.64-13.22
					s0.45-21.28,0.9-29.4c0.45-8.12,0.45-22.44,0.45-27.73c0-5.29,3.03-6.38,13.86-6.58
					C1788.32,1338.52,1806.77,1337.85,1820.79,1337.85z"/>
				<path d="M1576.88,1387.15c0-12.26-0.09-21.19,3.04-27.83c3.13-6.63,6.45-9.49,8.48-5.53c2.03,3.96,4.88,11.7,6.45,15.48
					s4.52,6.08,14.37,6.45c9.86,0.37,18.7,0.74,21.84-1.75c3.13-2.49,1.38-11.61-1.38-15.2c-2.76-3.59-8.75-13.73-14.1-16.77
					c-5.34-3.04-15.11-5.62-29.39-5.62s-30.87,3.22-37.41,10.23s-13.18,20.92-13.18,37.13s9.86,31.14,15.02,35.2
					c5.16,4.05,10.87,6.73,22.48,6.73c11.61,0,30.04-0.92,38.88-3.96c8.85-3.04,20.27-10.87,20.27-20.73
					c0-5.16-6.08-6.91-18.34-6.91c-12.26,0-16.87-1.06-20.09,4.72s-4.98,13.01-7.66,13.01
					C1580.94,1411.79,1576.88,1400.75,1576.88,1387.15z"/>
				<path d="M1647.54,1349.1c0-3.43,1.77-6.75,10.91-6.7c9.13,0.06,10.74,1.05,17.11,0.89c6.37-0.17,9.85-1.94,10.19,4.43
					s2.38,24.91,3.76,37.59c1.38,12.68,3.65,23.47,8.69,23.47s9.08-17.83,9.91-25.8c0.83-7.97,1.33-17.94,1.33-25.36
					s-2.77-11.18,2.33-13.73c5.09-2.55,17.27-2.55,23.81-2.21s9.91,1.66,9.91,10.91s0.66,24.64-1.27,38.14s-4.04,18.99-12.18,24.47
					s-16.61,8.14-20.65,8.75c-4.04,0.61-9.47,1.38-17.11,0.55s-10.91-0.78-17.11-0.78c-6.2,0-9.74,1.83-15.89-5.15
					s-7.03-9.91-9.69-21.87c-2.66-11.96-4.04-19.6-4.04-27.35S1647.54,1358.4,1647.54,1349.1z"/>
				<path d="M1416.91,1457.24c9.62,0,27.43-0.71,38.83-0.85c11.4-0.14,13.54,0,13.54,4.7s-1.78,6.27-5.63,6.34
					c-3.85,0.07-19.16,0.57-22.94,0.64s-4.35,2.99-4.35,5.13s1.78,4.99,8.19,5.06c6.41,0.07,11.9,0.07,11.9,5.2
					s-1.64,5.98-6.63,5.98c-4.99,0-12.18-1.07-12.18,3.99c0,5.06,0.64,7.27,6.06,7.41c5.41,0.14,13.96,0.36,18.02,0.57
					c4.06,0.21,8.41,0.85,8.41,5.7s-2.92,5.77-11.97,5.77s-21.02-0.29-31.42-0.93c-10.4-0.64-17.74,0.36-17.74-5.63
					s0.14-15.32-0.14-25.29c-0.28-9.97,1.64-19.16,1.92-20.8C1411.06,1458.59,1412.13,1457.24,1416.91,1457.24z"/>
				<path d="M1392.4,1457.09c5.98,0,7.91,0.07,7.91,8.91c0,8.83-0.14,18.38-0.36,28.07s0.5,12.75-2.14,14.75
					c-2.64,1.99-5.41,1.85-12.82,2.42c-7.41,0.57-9.76-0.07-11.68-1.78c-1.92-1.71-9.9-13.11-13.68-16.96
					c-3.78-3.85-4.92-3.49-5.13-0.85c-0.21,2.64,0.43,12.33-0.64,14.82c-1.07,2.49-1.99,3.13-8.34,3.99s-11.97,0.57-14.61,0.64
					c-2.64,0.07-4.13,0.85-4.35-6.34c-0.21-7.2,0.64-40.82,0.57-43.6c-0.07-2.78,0.78-3.78,6.41-4.56
					c5.63-0.78,4.99-0.85,12.25-0.85s9.62,2.35,12.54,5.7s3.99,5.49,6.2,8.34c2.21,2.85,5.27,5.34,6.63,5.34s2.14-3.7,2.07-7.48
					c-0.07-3.78-0.43-8.55,4.06-9.12S1386.7,1457.09,1392.4,1457.09z"/>
				<path d="M1302.44,1454.94c4.82,0,9.64,0.34,10.66,2.72c1.02,2.38,0.4,3.8,0,7.99c-0.4,4.19,0.85,13.83,0.85,23.07
					s0.11,12.3-0.45,17.06c-0.57,4.76,0.11,5.26-7.48,5.77s-13.04,0.5-16.66,0c-3.63-0.5-4.42-2.03-4.48-8.55
					c-0.06-6.52,0.91-15.02,0.91-24.99c0-9.98,0.51-16.21,0.4-19.38s2.83-3.17,6.4-3.23
					C1296.15,1455.34,1297.63,1454.94,1302.44,1454.94z"/>
				<path d="M1263.95,1455.46c4.93,0,10.02-0.47,10.02,3.46s-0.19,5.24-7.03,6.53c-6.84,1.28-13.13,1.52-17.56,1.52
					s-7.19,0.62-7.19,4.04s0,7.54,5.94,8.2c5.94,0.66,11.65,0.16,11.65,5.79c0,5.63-4.62,4.2-8.43,4.2s-6.37,0.12-8.55,2.8
					s-1.17,9.79-1.17,13.79s-1.24,5.63-7.69,6.29c-6.45,0.66-12.24,0.19-14.61-1.36c-2.37-1.55-2.1-2.95-2.6-10.02
					s-1.05-23.54-0.82-31.7s-1.36-13.09,4.35-12.94s20.63,0.04,28.75-0.04C1257.15,1455.93,1259.52,1455.46,1263.95,1455.46z"/>
				<path d="M1578.5,1454.05c4.93,0,10.02-0.47,10.02,3.46c0,3.92-0.19,5.24-7.03,6.53c-6.84,1.28-13.13,1.52-17.56,1.52
					s-7.19,0.62-7.19,4.04c0,3.42,0,7.54,5.94,8.2c5.94,0.66,11.65,0.16,11.65,5.79s-4.62,4.2-8.43,4.2s-6.37,0.12-8.55,2.8
					s-1.17,9.79-1.17,13.79s-1.24,5.63-7.69,6.29c-6.45,0.66-12.24,0.19-14.61-1.36s-2.1-2.95-2.6-10.02
					c-0.51-7.07-1.05-23.54-0.82-31.7c0.23-8.16-1.36-13.09,4.35-12.94s20.63,0.04,28.75-0.04
					C1571.71,1454.52,1574.08,1454.05,1578.5,1454.05z"/>
				<path d="M1621.93,1483.15c0-8.27,0.6-14.31,0.6-16.02c0-1.71,1.94-2.83,4.84-3.58s4.99,0.82,6.04,6.04
					c1.04,5.22,1.49,9.24,1.49,18.04s-1.94,12.15-3.58,14.38s-3.28,2.91-4.92,0.37C1623.05,1498.5,1621.93,1491.42,1621.93,1483.15z
					 M1604.64,1459c-4.7,4.62-11.33,16.77-11.33,24.69c0,7.92,3.5,17.95,8.72,22.71c5.22,4.77,10.73,7.23,18.93,7.23
					s10.36-0.52,17.14-0.97c6.78-0.45,9.61-2.24,14.53-7.53s8.94-11.63,8.94-24.52c0-12.89-5.22-19.75-11.55-22.58
					c-6.33-2.83-13.27-5.44-22.28-5.44C1618.43,1452.59,1609.34,1454.38,1604.64,1459z"/>
				<path d="M1699.22,1482.86c0-8.27,0.6-12.6,0.6-14.31c0-1.71,2.84-4.33,5.75-5.07s4.09,0.6,5.13,5.82
					c1.04,5.22,1.49,9.24,1.49,18.04s-1.94,12.15-3.58,14.38c-1.64,2.24-3.71,2.38-5.35-0.16
					C1700.38,1496.84,1699.22,1491.13,1699.22,1482.86z M1681.93,1458.71c-4.7,4.62-11.33,16.77-11.33,24.69
					c0,7.92,3.5,17.95,8.72,22.71c5.22,4.77,10.73,7.23,18.93,7.23s10.36-0.52,17.14-0.97s9.61-2.24,14.53-7.53
					c4.92-5.29,8.94-11.63,8.94-24.52c0-12.89-5.22-19.75-11.55-22.58c-6.33-2.83-13.27-5.44-22.28-5.44
					C1695.72,1452.3,1686.63,1454.09,1681.93,1458.71z"/>
				<path d="M1776.53,1467.52c0-3.17-0.28-5.36,2.68-5.64c2.96-0.28,10.29,6.7,10.29,20.38s-3.31,16.5-5.85,18.12
					c-2.54,1.62-4.09,3.09-5.92,1.06c-1.4-1.55-1.55-4.09-0.78-7.26S1776.53,1471.76,1776.53,1467.52z M1791.83,1508.63
					c6.56,0,7.83-0.42,11.28-1.9c3.45-1.48,10.01-6.77,13.04-15.93c3.03-9.17-0.14-18.19-4.23-26.09s-9.66-8.95-20.66-10.29
					c-11-1.34-30.53-0.35-35.4-0.35c-4.86,0-5.43,1.55-5.43,12.34c0,10.79-0.85,24.4-0.85,32.79c0,8.39,4.16,9.24,8.39,9.59
					s7.9,0,16.22,0C1779.28,1508.77,1785.27,1508.63,1791.83,1508.63z"/>
				<path d="M1864.24,1454.27c11.77,0,18.19,0.85,23.34,5.36c5.15,4.51,5.78,9.52,2.26,12.06c-3.53,2.54-14.1,1.55-18.76,1.55
					s-4.79-4.65-6.84-6.84c-2.04-2.19-5.92-2.96-8.04-2.89c-2.12,0.07-6.77,4.3-2.26,8.81c4.51,4.51,8.95,7.54,13.26,8.25
					c4.3,0.71,10.72,1.34,18.4,6.91c7.69,5.57,5.36,13.19,0.92,15.16s-4.94,4.09-16.71,4.65c-11.77,0.56-27.64,0-32.36-0.49
					c-4.72-0.49-12.13-6.63-12.13-11.42s3.17-3.38,11.63-3.17c8.46,0.21,13.26,0.56,15.37,3.88s3.31,4.02,8.25,4.02
					s6.63-5.01,5.92-6.98c-0.71-1.97-2.26-5.57-7.12-6.98c-4.87-1.41-15.93-4.23-21.51-6.42c-5.57-2.19-10.08-5.08-10.08-12.76
					c0-7.69,5.85-10.29,11.35-11S1857.54,1454.27,1864.24,1454.27z"/>
				<g>
					<path d="M1162.52,1469.14c-1.83-3.2-2.01-4.39-6.36-8.53c-4.35-4.14-12.97-6.83-18.39-5.84c-5.42,0.98-8.06,1.41-8.06,7.85
						s-0.04,21.84-0.04,29.09s5.12,8.45,13.18,8.45c6.78,0,12.84-2.52,17.45-8.45c4.61-5.93,5.29-9.26,5.29-13.27
						S1164.35,1472.34,1162.52,1469.14z M1150.83,1486.33c-1.96,2.9-3.33,4.39-6.87,4.44c-3.54,0.04-3.28-1.79-3.28-4.65
						c0-2.86-0.21-7.25-0.21-7.25c0-5.72-1.32-12.75,2.35-12.75c3.67,0,9.17,4.69,9.17,9.04
						C1151.98,1479.5,1152.79,1483.43,1150.83,1486.33z"/>
					<path d="M1068.5,1468.62c-1.81-5.64-4.63-8.16-8.75-8.16c-11.57,0-11.27,5.22-13.42,11.95c-2.15,6.73-6.6,22.09-7.78,27.68
						c-1.18,5.6,3.58,5.64,7.36,4.79c3.79-0.85,5.17-5.88,7.53-11.06c2.36-5.17,6.94-4.5,8.46-2.57c1.51,1.94,2.65,6.44,3.79,9.63
						c1.14,3.2,4.25,3.2,7.87,2.27c3.62-0.93,4.8-1.94,4.8-3.83s-0.34-4.08-2.44-11.15
						C1073.8,1481.11,1070.31,1474.25,1068.5,1468.62z M1060.64,1482c-1.89,0.84-3.49,1.14-5.17,0.55
						c-1.68-0.59-2.61-2.68-1.89-5.08c0.72-2.4,1.51-5.39,4.96-5.39c3.07,0,3.53,2.44,3.58,5.01
						C1062.15,1479.64,1062.53,1481.15,1060.64,1482z"/>
					<path d="M1116.27,1455.76c-4.1,0-4.64,2.12-4.98,5.08c-0.35,2.96,0.1,10.07-0.2,15.15c-0.3,5.08-3.01,2.76-4.44,0.05
						s-1.58-5.13-5.97-9.62s-6.12-7.65-10.85-7.25c-4.74,0.39-5.92,1.83-5.92,7.65c0,5.82,1.53,21.51,1.97,29.21
						s2.91,8.68,6.27,8.68c3.35,0,4.64-1.13,5.87-3.21c1.23-2.07,0.94-7.75,1.53-10.76c0.59-3.01,0.84-4,2.86-2.27
						c2.02,1.73,5.58,8.49,7.2,11.33c1.63,2.85,6.22,1.64,8.63-0.18c2.42-1.83,2.52-8.14,2.52-15.79s0.39-14.41,0.59-19.64
						S1121.4,1455.76,1116.27,1455.76z"/>
				</g>
			</g>
			<path d="M1032.1,1531.06c-4.76,0-4.83-0.49-6.71-1.8c-1.88-1.31-2.78-4.66,3.6-5.16c6.38-0.49,46.98-6.38,65.14-9
				c18.17-2.62,58.6-7.04,68.83-7.2c10.23-0.16,11.13-0.57,14.81-1.23s5.89-1.31,5.81,0c-0.08,1.31,0.74,1.39-4.66,2.13
				s-35.76,6.87-53.36,9.33C1107.96,1520.58,1042.74,1531.06,1032.1,1531.06z"/>
		</g>
		<g>
			<path d="M478.64,786.61c4.12-23.15,1.99-41.61,2.27-74.69c0.28-33.09,1.42-28.26-0.85-55.38c-2.27-27.12-13.35-32.09-21.02-39.33
				c-7.67-7.24-19.03-19.17-31.1-17.18c-12.07,1.99-10.65,7.24-10.65,17.18c0,6.54,1.56,6.39,1.56,19.74
				c0,13.35,0.14,9.94-2.27,29.39c-2.41,19.45-3.55,22.86-3.27,29.82c0.28,6.96-2.98,25.56-3.69,37.91
				c-0.71,12.35-3.27,13.21-5.25,33.37c-1.99,20.16-4.26,33.09-7.81,57.37c-3.55,24.28-3.41,33.09-6.11,46.57
				c-2.7,13.49-3.27,17.75-3.27,28.83c0,11.08-1.7,12.92-3.41,19.45c-1.7,6.53-4.4,16.19-8.38,37.49
				c-3.98,21.3-8.24,50.27-10.08,66.6c-1.85,16.33-3.83,15.05-10.22,34.36c-6.39,19.31-3.27,27.41-3.41,42.46
				c-0.14,15.05-5.96,21.73-6.25,33.8c-0.28,12.07-3.12,25.7-6.25,40.9c-3.12,15.19-8.66,33.51-10.08,44.87
				c-1.42,11.36-7.53,35.5-10.08,55.38c-2.56,19.88-3.27,30.39-3.41,44.59c-0.14,14.2-3.12,17.61-1.28,43.03s5.82,23.43,12.78,35.36
				c6.96,11.93,12.07,5.54,18.03,10.37c5.96,4.83,9.37,5.96,17.89,4.83s4.69,0.71,13.35-2.56c8.66-3.27,9.09-21.44,12.92-39.05
				c3.83-17.61,1.14-15.34,7.24-51.4c6.11-36.07,4.26-23,11.93-57.37c7.67-34.36,9.8-44.73,14.2-69.72
				c4.4-24.99,3.83-36.07,8.95-65.32c5.11-29.25,0.14-28.26,6.11-55.38s4.69-41.61,9.37-60.21c4.69-18.6,5.11-38.62,10.65-66.88
				c5.54-28.26,6.11-30.81,7.24-56.23c1.14-25.42,9.66-47.43,10.79-66.17C476.94,804.64,474.53,809.75,478.64,786.61z
				 M460.39,896.56c-0.17,0.66-0.38,1.31-0.61,1.95c-0.24,0.65-0.53,1.33-1.11,1.73c-0.57,0.4-1.5,0.35-1.83-0.26
				c-0.15-0.27-0.16-0.6-0.16-0.91c-0.03-2.62,0-5.38,1.3-7.66c0.16-0.27,0.34-0.55,0.6-0.72c0.26-0.18,0.62-0.24,0.89-0.08
				c0.27,0.15,0.39,0.47,0.48,0.77C460.42,892.88,460.81,894.99,460.39,896.56z"/>
			<path d="M863.61,1357.5c-0.95-5.45,1.19-13.52-12.57-21.58c-13.76-8.06-62.85-47.67-88.22-69.49
				c-25.38-21.82-90.83-91.78-101.74-105.06c-10.91-13.28-52.89-68.06-69.01-102.45c-16.13-34.39-20.63-44.43-24.19-51.98
				c-3.56-7.55-2.37-11.58,1.19-16.09c3.56-4.51,37.71-48.85,66.4-102.69c28.7-53.84,41.03-89.65,55.02-141.35
				s12.81-82.29,12.81-113.36s-13.52-74.71-26.09-98.18c-12.57-23.48-59.05-70.67-130.91-66.64
				c-71.86,4.03-104.82,24.66-136.84,40.32c-32.02,15.65-40.79,19.21-50.75,27.27c-9.96,8.06-11.15,8.54-21.82,13.99
				c-10.67,5.45-25.85,15.18-37.95,27.04c-12.1,11.86-9.96,11.86-18.5,18.26c-8.54,6.4-11.62,11.15-21.58,18.26
				c-9.96,7.11-14.47,9.72-24.43,22.06c-9.96,12.33-10.2,12.81-16.13,18.97c-5.93,6.17-9.01,9.25-18.5,21.58
				c-9.49,12.33-12.81,14.7-28.46,37.95c-15.65,23.24-11.15,26.8-19.45,36.05c-8.3,9.25-9.25,12.57-20.16,34.63
				c-10.43,21.09-37.97,65.39-34.77,121.06c-10.69,4.79-16.77,9.75-22.48,13.8c-8.55,6.06-10.57,3.73-15.92,12.59
				c-5.36,8.86-12.98,10.88-23.55,30.77c-10.57,19.89-6.68,36.05-6.22,43.82c0.47,7.77,2.64,9.48,4.97,10.57
				c2.33,1.09,2.49,4.35,6.68,4.35c6.68,0,5.59-12.59,15.38-25.79c9.79-13.21,16.32-19.27,26.42-27.97
				c10.1-8.7,10.26-8.55,10.26,3.26c0,13.98,2.95,20.2,6.99,28.44c4.04,8.24,3.26,14.14,11.03,34.18
				c7.77,20.04,18.49,35.43,28.12,45.99s19.73,9.17,24.71,11.81c4.97,2.64,7.15,3.73,16.16,4.97c9.01,1.24,13.98,0.31,23.77-1.71
				c9.79-2.02,18.8-1.86,39.62-13.67c20.82-11.81,26.57-24.55,27.66-29.83c1.09-5.28,2.18-6.06,5.28-12.9
				c3.11-6.84,3.88-17.87,4.2-33.56c0.31-15.69-0.62-9.17-4.66-26.73c-4.04-17.56-4.82-12.28-12.9-26.42
				c-8.08-14.14-25.64-33.1-54.7-46.46c-9.22-4.24-19.31-7.09-29.56-8.79c-0.88-7.92-1.33-23.34,4.48-45.13
				c8.54-32.02,31.31-81.58,59.76-125.46c28.46-43.87,73.28-98.42,127.59-139.45s99.84-55.26,109.33-57.16
				c9.49-1.9,22.53-3.79,35.1-7.35s33.68-6.17,60.24,3.08c26.56,9.25,41.74,23.48,55.5,46.25c13.76,22.77,20.87,58.82,18.5,93.2
				c-2.37,34.39-10.43,64.98-23.24,99.37s-39.37,81.58-72.81,127.12c-33.44,45.53-62.14,69.01-72.81,78.5
				c-10.67,9.49-13.52,11.15-13.52,25.38c0,14.23,12.33,39.61,16.13,44.35c3.79,4.74,8.77,20.16,25.14,52.18
				c16.36,32.02,33.44,64.51,48.14,84.9c14.7,20.4,18.26,22.77,19.92,26.8c1.66,4.03,6.64,5.93,13.52,11.86
				c6.88,5.93,25.38,28.22,32.25,37.95c6.88,9.72,47.67,44.82,61.19,57.39c13.52,12.57,35.34,34.39,46.25,43.16
				s11.62,10.43,26.32,22.29c14.7,11.86,27.51,22.53,35.57,26.56c8.06,4.03,12.81,7.11,15.18,9.01c2.37,1.9,3.08,3.56,13.04-1.42
				c9.96-4.98,30.12-15.42,39.37-26.8C867.64,1371.97,864.56,1362.95,863.61,1357.5z M136.28,972.45c-0.01,0.15-0.06,0.29-0.12,0.43
				c-0.03,0.08-0.06,0.16-0.13,0.22c-0.14,0.13-0.36,0.09-0.54,0.01c-0.71-0.32-1.13-1.09-1.75-1.55c-0.31-0.23-0.29-0.37-0.27-0.73
				c0.03-0.46-0.04-0.93,0.16-1.36c0.19-0.42,0.61-0.74,0.72-1.19c0.05-0.21,0.03-0.43,0.06-0.65c0.01-0.04,0.01-0.09,0.04-0.12
				c0.03-0.04,0.07-0.06,0.12-0.08c0.18-0.06,0.39,0.01,0.54,0.13c0.15,0.12,0.26,0.28,0.36,0.44c0.18,0.27,0.35,0.54,0.53,0.8
				c0.16,0.24,0.31,0.48,0.38,0.76c0.08,0.32,0.03,0.68-0.15,0.96c-0.07,0.12-0.17,0.23-0.22,0.37
				C135.81,971.4,136.31,971.91,136.28,972.45z M255.64,1016.06c-0.01,0.2-0.06,0.42-0.21,0.55c-0.17,0.15-0.42,0.15-0.65,0.12
				c-0.5-0.05-0.99-0.17-1.45-0.36c-0.19-0.08-0.38-0.16-0.53-0.31c-0.31-0.31-0.34-0.79-0.35-1.23c-0.01-0.27-0.01-0.54,0.06-0.8
				c0.07-0.26,0.23-0.51,0.47-0.62c0.32-0.15,0.69-0.04,1.01,0.11C255.01,1014,255.69,1014.92,255.64,1016.06z M250.32,1000.72
				c0.31-0.39,0.77-0.66,1.27-0.7c1.12-0.09,1.76,0.87,1.85,1.87c0.03,0.33-0.02,0.67-0.2,0.95c-0.54,0.79-2.36,1.13-3.05,0.41
				c-0.28-0.3-0.37-0.74-0.36-1.15C249.85,1001.6,250.01,1001.11,250.32,1000.72z M179.52,957.3c7.15,3.42,18.49,12.12,21.44,19.27
				c2.95,7.15,9.17,10.72,9.17,18.8c0,8.08-2.64,13.36-8.08,13.83c-5.44,0.47-14.76-2.02-19.11-11.5
				c-4.35-9.48-10.26-31.54-10.26-31.54C170.67,957.15,172.38,953.89,179.52,957.3z M617.79,1201.19c-0.37,0.29-0.89,0.46-1.35,0.3
				c-0.41-0.15-0.72-0.5-0.99-0.85c-0.21-0.27-0.4-0.55-0.52-0.87s-0.16-0.67-0.06-0.99c0.04-0.13,0.11-0.25,0.21-0.34
				c0.15-0.14,0.37-0.19,0.57-0.22c0.41-0.06,0.82-0.08,1.23-0.06c0.17,0.01,0.34,0.03,0.48,0.11c0.13,0.08,0.22,0.2,0.32,0.32
				c0.25,0.33,0.49,0.66,0.74,0.98c0.06,0.08,0.13,0.17,0.16,0.26C618.8,1200.4,618.17,1200.89,617.79,1201.19z M686.42,1288.07
				c-3.14-2.03-7.39-6.01-7.39-6.01c-2.31-1.94-3.23-3.6,1.2-1.48c4.43,2.13,7.85,5.36,8.41,6.38
				C689.19,1287.98,689.56,1290.1,686.42,1288.07z M732.73,1307.58c-1.32-0.68-1.36-1.8-1.08-2.2c0.28-0.4,1.06-1.28,2.16,0
				C735.01,1306.78,734.05,1308.26,732.73,1307.58z M812.88,1365.11c-1.04,0.29-2.24,0-2.45-1.09c-0.21-1.09,0.81-0.98,1.61-0.39
				C812.84,1364.24,813.43,1364.96,812.88,1365.11z M831.73,1376.26c-0.03,0.09-0.07,0.19-0.15,0.25c-0.13,0.1-0.3,0.09-0.46,0.07
				c-0.2-0.02-0.41-0.07-0.56-0.21c-0.12-0.11-0.18-0.25-0.24-0.4c-0.06-0.15-0.12-0.3-0.12-0.46c0-0.16,0.05-0.33,0.18-0.42
				c0.12-0.09,0.29-0.09,0.44-0.09c0.08,0,0.17,0,0.24,0.05c0.04,0.02,0.06,0.06,0.09,0.09
				C831.43,1375.5,831.88,1375.74,831.73,1376.26z"/>
		</g>
		<path d="M747.51,743.44c3.54-5.34,6.69-7.8,13.23-8.27c6.54-0.47,14.57-1.34,18.82,2.99s5.12,14.65,5.04,20.24
			c-0.08,5.59,0.24,3.94,0.55,8.27s0.55,5.12-1.1,10.16s-0.32,6.85-1.5,11.26c-1.18,4.41-6.62,7.09-10.87,9.85
			c-4.25,2.76-7.4,3.47-12.84,3.07s-10.55-2.76-15.59-6.93s-6.93-8.9-6.93-15.59s3.7-14.41,4.96-21.27S746.47,745,747.51,743.44z"/>
		<path d="M887.72,703.71c-0.31-3.68,1.38-12.91,21.06-13.68s27.52,1.08,36.28,5.53c8.76,4.46,11.22,5.38,15.22,6.92
			c4,1.54,12.61,7.99,20.6,19.99c7.99,11.99,13.99,35.82,13.99,58.73c0,10.45-4.3,14.76,5.07,11.53c9.38-3.23,20.76-6,38.44-11.38
			c17.68-5.38,18.14-3.84,26.29-7.23c8.15-3.38,20.76-5.53,27.37-6.15c6.61-0.61,5.38-2.31,10.45,0.31c5.07,2.61,3.23,5.53,0,9.38
			c-3.23,3.84-4,6.76-11.99,9.84c-7.99,3.07-10.45,4.77-26.75,15.68c-16.3,10.92-29.67,17.37-40.13,25.06
			c-10.45,7.69-15.53,9.53-22.75,13.53c-7.23,4-11.38,4.15-14.91,18.3s-14.76,50.28-21.06,76.57c-6.3,26.29-16.6,65.19-20.29,103.16
			c-3.69,37.98-4.3,60.42-2.92,85.79c1.38,25.37,13.07,29.52,22.91,25.52c9.84-4,22.6-14.91,29.67-28.44
			c7.07-13.53,13.22-27.83,21.06-46.74c7.84-18.91,7.07-19.68,7.53-24.45c0.46-4.77,4.77-12.91,7.07-25.21
			c2.31-12.3,5.69-23.83,5.69-45.97s1.08-30.29,15.53-32.59c14.45-2.31,23.37-2.77,32.75-16.3s14.76-39.51,35.05-71.95
			c20.29-32.44,50.12-52.58,84.41-52.58c18.6,0,24.6,5.38,30.29,8.15s8.92,6.15,13.07,13.99c4.15,7.84,12.3,16.6,12.76,45.2
			c0.46,28.6,2.46,37.35-5.69,63.95c-8.15,26.6-13.68,41.98-22.14,58.28c-8.46,16.3-9.84,16.76-21.99,30.9
			c-12.15,14.14-19.83,29.98-32.29,41.36c-12.45,11.38-27.83,17.37-27.83,23.98c0,6.61,4.46,12.3,10.76,10.15
			c6.3-2.15,8.3-2.15,21.22,0s17.07,5.84,21.99,0.61s17.99-18.76,39.21-47.51c21.22-28.75,38.9-58.12,50.89-80.1
			c11.99-21.99,28.44-56.43,38.13-80.87s19.53-46.89,19.53-46.89s4.3,58.42,5.53,71.95c1.23,13.53-2.77,49.2-6.76,57.04
			c-4,7.84-4.15,8.92-9.99,17.37c-5.84,8.46-4.15,15.84-13.07,25.06c-8.92,9.22-11.38,16.76-27.98,37.21
			c-16.6,20.45-27.83,32.59-36.59,38.9c-8.76,6.3-8.46,5.84-12.61,11.22c-4.15,5.38-16.76,15.99-24.14,20.76
			c-7.38,4.77-11.68,8.76-12.91,9.38c-1.23,0.61,0.77,11.53,0.77,22.6c0,11.07-2.15,19.68-10.45,41.67
			c-8.3,21.99-17.37,35.21-35.52,56.58c-18.14,21.37-29.21,26.6-33.67,28.6c-4.46,2-11.22,5.84-21.22,5.84s-19.22-2.15-22.6-12.3
			c-3.38-10.15-5.07-12.61-3.38-18.45c1.69-5.84,0-7.07,0.92-13.38c0.92-6.3,0.61-17.83,14.14-44.74
			c13.53-26.91,27.21-42.13,35.98-49.81c8.76-7.69,10.45-12.3,2.61-12.45c-7.84-0.15-12.45-0.77-20.6-6
			c-8.15-5.23-21.22-10.92-25.06-27.67s-6.92-20.14,2.15-30.75s9.53-14.3,21.37-21.99s9.53-7.84,12.61-11.99
			c3.07-4.15,10.45-2.77,20.29-15.68c9.84-12.91,12.45-14.61,26.44-32.29s29.21-42.13,33.36-68.26c4.15-26.14,8.3-29.67,8.3-48.43
			s-9.07-27.83-16.6-28.29s-12.76-6.3-25.21,1.84c-12.45,8.15-21.52,10.15-33.36,27.06s-10.61,21.68-20.76,45.2
			c-10.15,23.52-4.77,35.67-10.76,54.27c-6,18.6-5.23,21.22-14.3,23.83c-9.07,2.61-21.52-1.23-22.45,2.15
			c-0.92,3.38-1.38,15.37-1.08,23.68c0.31,8.3,2.46,8.61-1.08,32.44c-3.54,23.83-7.23,44.28-17.99,66.27s-14.14,30.9-31.52,54.27
			c-17.37,23.37-27.52,35.67-52.74,51.97c-25.21,16.3-43.51,15.37-52.43,15.37c-8.92,0-34.75-4-49.35-25.37
			c-14.61-21.37-21.83-60.73-21.83-85.79s0.77-52.58,3.38-76.87s8.15-59.96,16.6-90.56c8.46-30.6,15.22-49.51,20.91-61.65
			c5.69-12.15,8.46-13.84-0.61-16.76c-9.07-2.92-32.59-8.15-40.28-11.53c-7.69-3.38-12.76-2.92-17.68-2.77
			c-4.92,0.15-17.68,2.46-20.6-3.23c-2.92-5.69-3.23-9.07,3.54-12.91c6.76-3.84,12.61-4.77,16.45-7.07
			c3.84-2.31,5.69-3.23,18.45-8.15c12.76-4.92,22.6-9.22,41.36-15.68c18.76-6.46,19.83-6.76,24.45-7.69
			c4.61-0.92,6.15-2.92,9.22-7.53c3.07-4.61,5.84-13.99,7.53-24.29c1.69-10.3,6-20.14,6-38.59s-5.38-26.75-15.53-31.36
			S888.8,716.47,887.72,703.71z"/>
		<path d="M710.6,874.25c1.21-4.71,2.9-9.29,5.14-13.6c4.73-9.11,8.2-10.59,20.01-2.2c14.54,10.33,21.5,25.08,18.76,43.42
			c-2.74,18.34-12.22,91.26-12.22,132.99c0,41.73,12.86,43.84,22.76,31.4s15.6-26.13,21.29-57.11c5.69-30.98,8.85-48.26,17.49-64.7
			c8.64-16.44,28.78-17.37,32.27,22.2c3.49,39.56,1.08,51.8-8.46,85.53c-9.54,33.73-24.9,59.34-41.5,73.82
			c-16.6,14.48-37.44,27.55-59.69,27.55s-41.86-31.97-43.8-58.81c-1.94-26.84-0.18-65.35,1.59-86.89s5.83-64.11,13.25-87.25
			C702.83,903.92,708.08,884.06,710.6,874.25z"/>
		<path d="M1422.58,600.54c6.14,0,14.25,1.82,16.53,7.73c2.27,5.91,3.41,6.82,3.49,20.62s1.44,21.23-1.82,28.66
			c-3.26,7.43-15.62,12.89-23.28,12.89s-20.77-3.71-23.2-14.48c-2.43-10.77-2.12-20.7,1.29-31.62s5.84-14.48,7.66-17.74
			S1411.13,600.54,1422.58,600.54z"/>
		<path d="M1962.44,689.37c-5.98-27.96-20.79-55.18-26.77-71.03c-5.98-15.85-1.05-23.63,4.49-35.29
			c5.53-11.66-0.75-21.09-7.18-25.87c-6.43-4.79-20.64,0.9-33.05,14.06c-12.41,13.16-17.5,27.07-22.73,37.98
			c-5.23,10.92-4.93,23.33-15.4,37.24c-10.47,13.91-4.04,21.09-25.57,49.35c-21.53,28.26-35.74,38.13-49.8,45.46
			c-14.06,7.33-23.78,7.03-31.4,7.63c-7.63,0.6-6.73,16.9-11.66,35.89c-4.94,18.99-13.46,33.2-21.83,51.89
			c-8.37,18.69-14.66,20.64-19.59,29.01c-4.93,8.37-9.72,14.8-18.99,22.88c-9.27,8.08-20.94,13.31-27.37,18.09
			c-6.43,4.79-19.14,4.93-43.22,4.64c-24.08-0.3-26.77-7.78-30.36-15.85c-3.59-8.08-0.6-8.97,5.23-11.81
			c5.83-2.84,15.25-10.92,34.25-21.83c18.99-10.92,21.83-17.2,35.44-32c13.61-14.8,29.76-43.67,35.29-52.64
			c5.53-8.97,9.72-16.9,13.76-37.83c4.04-20.94,1.05-35.29-0.75-44.27c-1.79-8.97-14.36-25.57-34.54-25.57
			c-44.26,0-87.33,41.27-104.83,63.56c-17.5,22.28-14.36,21.68-24.08,39.03c-9.72,17.35-15.7,44.26-16.45,51.44
			c-0.75,7.18,0.15,9.42-8.67,7.18c-8.82-2.24-7.78-2.24-20.34-6.43c-12.56-4.19-13.76-18.09-21.98-18.09
			c-8.22,0-15.55,14.8-15.55,28.86c0,14.06-5.08,23.33-14.21,50.1c-9.12,26.77-10.47,32.75-19.44,49.05
			c-8.97,16.3-12.56,17.2-15.55,19.44c-2.99,2.24-7.33-7.18-9.27-23.48c-1.94-16.3-3.74-51.89-1.79-64
			c1.94-12.11,2.69-16.15,2.69-24.38c0-8.22,2.99-29.76,7.03-50.99c4.04-21.24,5.68-33.2,5.98-43.52
			c0.3-10.32-10.17-17.65-14.06-22.43c-3.89-4.79-7.18-7.63-12.56-7.63c-10.32,0-13.8,6.7-18.09,18.69
			c-3.13,8.74-14.91,59.98-22.16,103.94c-7.25,43.96-12.54,108.71-1.47,139.97c11.07,31.25,18.69,42.62,33.8,42.62
			c15.1,0,36.94-15.4,56.08-36.34c19.14-20.94,14.66-19.89,24.23-34.25s17.5-39.48,21.38-54.43c3.89-14.95,3.74-20.64,11.22-17.2
			c7.48,3.44,21.83,7.78,27.67,7.63c5.83-0.15,7.33,1.2,8.82,7.33c1.5,6.13,4.34,18.54,14.36,34.69s22.58,23.33,30.36,26.62
			c7.78,3.29,11.37,4.93,18.84,7.78c7.48,2.84,20.79,6.28,24.67,6.28c3.89,0,10.17-3.44,25.27-9.87
			c15.1-6.43,28.56-16.45,48.15-34.99c19.59-18.54,30.66-33.5,34.25-41.42c3.59-7.93,11.81-23.48,22.43-37.54
			c10.62-14.06,16.6-42.02,18.99-50.55c2.39-8.52,4.04-9.57,6.73-9.72c2.69-0.15,5.68,0.3,15.85-1.94
			c10.17-2.24,11.22-2.09,10.02,1.79c-1.2,3.89-8.82,26.77-16,40.38s-20.94,36.34-26.77,47.55c-5.83,11.22-3.89,8.82-9.42,18.84
			c-5.53,10.02,1.79,20.19,9.72,20.19c7.93,0,19.29-4.49,26.92-11.07c7.63-6.58,16-14.51,22.73-27.07
			c6.73-12.56,8.08-16.15,9.57-23.63c1.5-7.48,0.15-13.01,9.42-30.36c9.27-17.35,4.34-11.37,15.55-38.43
			c11.22-27.07,16.3-38.73,29.91-75.67c13.61-36.94,8.67-37.09,11.66-40.83c2.99-3.74,5.23-6.58,6.28-11.37
			c1.05-4.79,2.99-4.04,2.69,4.49c-0.3,8.52-0.6,11.51,2.69,23.48c3.29,11.96,3.44,20.04,4.64,32.75
			c1.2,12.71,2.24,36.79,0.45,63.71c-1.79,26.92-5.98,30.36-11.66,37.24c-5.68,6.88-13.16,3.89-18.84,0.45
			c-5.68-3.44-12.86-9.27-24.38-9.27s-9.12,9.12-7.93,19.44c1.2,10.32,2.54,15.7,9.57,24.53c7.03,8.82,6.88,8.97,15.85,11.81
			c8.97,2.84,14.66,3.89,21.53,2.99c6.88-0.9,11.66-1.35,21.68-1.94c10.02-0.6,18.69-4.93,27.82-9.72
			c9.12-4.79,15.1-8.52,17.05-13.46c1.94-4.93,1.79-2.09,6.88-7.33c5.08-5.23,3.74-12.41,5.68-17.8c1.94-5.38,3.44-8.67,3.29-13.46
			c-0.15-4.79,5.98-19.44,6.13-45.46C1971.86,731.24,1968.43,717.33,1962.44,689.37z M1574.35,832.2c0.91-9.8,4.45-31.89,8.16-44.99
			c3.71-13.1,5.77-18.95,14.17-33.7c8.4-14.75,19.77-29.41,32.22-39.47c12.44-10.05,29.5-19.44,36.91-19.44
			c6.43,0,7.99,7.25,6.1,26.2c-1.9,18.95-6.18,28.67-7.99,31.72c-1.81,3.05-0.58,4.28-3.3,12.36c-2.72,8.07-7.66,11.95-17.88,23.32
			c-10.22,11.37-18.37,20.84-29.91,28.26c-11.53,7.42-14.34,7.74-23.81,12.94C1579.54,834.59,1573.44,842.01,1574.35,832.2z"/>
	</g>
</g>
</svg>
