<?xml version="1.0" encoding="utf-8"?>
<!-- Generator: Adobe Illustrator 26.0.3, SVG Export Plug-In . SVG Version: 6.00 Build 0)  -->
<svg version="1.1" id="Layer_1" xmlns="http://www.w3.org/2000/svg" xmlns:xlink="http://www.w3.org/1999/xlink" x="0px" y="0px"
	 viewBox="0 0 2000 2000" style="enable-background:new 0 0 2000 2000;" xml:space="preserve">
<g>
	<path d="M1926.99,853.05c1.26-4.44,2.68-9.26,3.36-10.75c1.36-2.98,1.9-12.48-6.78-11.4c-8.68,1.09-36.9,21.98-38.26,53.18
		c-1.36,31.21,21.17,32.02,23.34,31.75c2.17-0.27,15.74-7.6,16.28-33.92c0.09-4.56,0.15-8.14,0.17-10.96
		C1925.21,857.48,1925.74,857.5,1926.99,853.05z"/>
	<path d="M1625.22,783.17c0,0,11.61-1.57,16.32-5.65c4.71-4.08,13.18-9.1,21.03-9.1c7.85,0,13.5-3.14,14.12-13.18
		c0.63-10.04-21.03-28.88-60.26-30.45c0,0-38.91-2.29-52.81,24.27c-1.57,3-1.47,6.6,0.39,9.42c1.95,2.94,5.52,5.75,11.93,4.6
		C1588.18,760.88,1606.07,781.28,1625.22,783.17z"/>
	<path d="M1710.48,480.19c5.31-9.17,14.47-18.81,23.15-20.26c8.68-1.45,13.99,8.2,12.54,12.54s-6.27,19.3-6.27,19.3
		c-0.48,12.06,11.09,27.98,14.95,52.1c5.17,32.3,3.01,70.32,2.19,81.59c-0.14,1.98,0.48,3.92,1.72,5.48
		c3.47,4.37,9.9,14.28,12.97,23.87c3.86,12.06,7.24,23.64,13.99,47.27c6.75,23.64,27.98,41,27.98,41
		c15.92,11.09,83.93,37.14,101.3,31.35c12.62-4.21,22.43-5.61,26.86-6.06c1.8-0.18,3.61-0.02,5.34,0.51
		c18.24,5.52,25.64,25.44,24.72,76.47c-0.96,53.54-17.85,97.44-27.5,107.09c-9.65,9.65-38.11,4.82-41.97,5.31
		c-3.86,0.48-4.82,12.54-4.82,12.54c-6.27,38.11-26.53,42.45-36.18,44.86c-9.65,2.41-25.57-6.75-30.87-3.38
		c-5.31,3.38-34.73,21.71-34.73,21.71c-68.5,42.45-128.79,64.64-170.76,66.57c-41.97,1.93-81.52-2.89-92.13-1.93
		s-28.46,15.92-28.46,15.92c-24.6,15.92-39.56,15.92-55.96,16.88c-16.4,0.96-15.44,11.09-15.44,16.88
		c0,5.79-10.13,46.79-11.58,67.53c-1.45,20.74,5.79,52.1,6.27,68.5c0.48,16.4,7.24,75.25,17.85,99.85
		c10.61,24.6,13.02,41.48,14.47,54.51c1.45,13.02,13.51,24.6,10.13,31.35c-3.38,6.75-30.87,25.57-68.98,27.01
		c-38.11,1.45-54.51-13.51-54.99-33.77c-0.48-20.26-10.61-31.84-21.71-30.87s-16.88-0.96-21.22-10.61s-7.72-61.74-8.2-69.46
		s-0.96-33.28-12.54-35.7c-11.58-2.41-10.13,11.58-10.61,23.15c-0.48,11.58,4.82,40.04,8.2,65.12
		c3.38,25.08,13.99,46.31,19.78,63.67c5.79,17.37-0.48,27.5-8.2,29.43c-7.72,1.93-22.67,3.38-63.67,5.31
		c-41,1.93-50.17-31.35-53.06-40.04c-2.89-8.68-4.82-19.78-19.78-18.33s-27.5-4.34-30.39-17.85s8.2-25.08,9.17-38.59
		s-4.82-102.75-4.82-102.75c-5.39-30.43-14.94-42.53-20.86-47.25c-2.58-2.06-6.05-2.49-9.08-1.21
		c-35.87,15.17-71.66,15.17-80.04,15.17c-8.68,0-96.48,6.27-243.6-71.39s-225.27-164.49-266.27-212.25s-68.5-111.43-82.49-137.48
		c-13.99-26.05-13.99-38.11-13.51-44.38c0.48-6.27,33.28-35.21,33.28-35.21c80.07-80.07,100.82-164.97,100.82-164.97
		c4.82-11.58,39.55-143.75-52.58-166.9c-58.78-14.77-120.59,24.29-120.59,24.29c-132.69,78.99-179.38,213.23-184.83,229.18
		c-5.45,15.95,8.56,17.9,8.56,17.9c22.41,3.83,40.63,15.92,53.68,27.71c18.04,16.3,30.53,37.65,36.23,61.29
		c11.94,49.54-11.54,80.7-26.88,93.49c-18.68,15.56-66.15,27.63-106.62-7s-40.47-100.78-38.91-108.56c1.56-7.78-6.23-8.56-6.23-8.56
		c-17.12-1.17-49.03,36.19-54.09,43.19s-8.17,24.12-13.62,23.74c-5.45-0.39-27.24-21.4-0.78-64.59s60.3-54.98,70.82-57.98
		c7.86-2.24,11-8.59,11-8.59c59.02-201.28,264.25-308.42,352.57-311.05c88.33-2.63,115.37,72.9,115.37,72.9
		c24.73,80.45,3.83,146.27-14.63,199.9s-67.91,127.81-76.62,139.65c-8.71,11.84-5.26,16.17-5.26,16.17
		c36.6,102.05,147.8,204.1,168.21,220.99c20.41,16.89,111.2,89.38,220.99,125.98s155.96-0.09,155.96-0.09
		c6.44-2.03,20.66-9.48,13.55-23.71c-5.13-10.27,0.49-13.48,4.03-14.47c1.46-0.41,2.99-0.34,4.44,0.12
		c30.69,9.79,65.51,82.35,71.48,93.95c6.1,11.86,23.03,29.13,26.08,45.73c3.05,16.6,5.08,68.42,5.08,68.42
		c11.52,72.15,29.47,109.41,33.53,119.57c4.06,10.16,11.18,12.87,22.02,14.23c10.84,1.35,12.87-15.92,19.99-19.31
		c7.11-3.39,12.87,5.42,18.97,6.1s3.39-8.47,3.39-8.47c-3.73-3.39-12.19-27.44-12.19-27.44c-14.23-38.95-8.13-79.6-7.11-91.12
		c1.02-11.52,32.18-132.78,38.28-158.53c6.1-25.74,11.52-43.7,19.99-43.36s21,18.97,53.86,21c32.86,2.03,31.84-12.87,31.84-12.87
		c-11.86-6.44-37.26-23.71-50.47-37.26s-5.76-26.42,4.06-26.42s56.91,18.29,69.78,20.32c12.87,2.03,45.73,2.37,50.81-5.42
		c5.08-7.79-3.05-15.58-6.1-16.26c-3.05-0.68-34.21-27.44-35.23-37.6c-1.02-10.16,10.5-9.48,10.5-9.48
		c118.77,45.04,182.19,42.6,192.57,41.8c1.33-0.1,2.67-0.18,3.99-0.24c111.13-4.91,164.89-46.36,168.25-53.42
		c3.39-7.11-2.37-18.29,2.71-21c5.08-2.71,26.08,0.34,39.63,4.4s24.05-1.02,24.05-12.19c0-11.18-14.9-21.68-22.02-21.68
		c-7.11,0-38.95,8.47-84.68,9.48c-45.73,1.02-61.99-22.02-74.18-32.52c-12.19-10.5-27.44-13.21-38.28-7.79
		c-10.84,5.42-18.97,4.06-21.34-5.08c-2.37-9.15,10.84-29.81,32.86-30.49c22.02-0.68,28.12,8.47,45.39,22.7
		c17.28,14.23,30.83,17.28,64.02,22.02s40.99-20.66,73.84-21.68c32.86-1.02,62.33,28.12,62.33,28.12
		c6.1,5.08,31.84,11.18,42.68-57.92c10.77-68.66,0.68-78.59-4.74-79.6c-5.42-1.02-11.52,8.47-14.9,16.94
		c-3.39,8.47-10.16,18.97-20.32,18.63c-10.16-0.34-21.34-9.15-30.49-15.24c-9.15-6.1-35.88-9.88-35.88-9.88
		c-9.1-1.92-48.86-11.98-79.04-56.53c-30.18-44.55-22.41-54.66-36.41-92.93c-16.29-44.55-19.98-49.25-34.97-63.71
		c-14.99-14.47-34.59-11.42-53.26-22.73c-18.67-11.31-22.36-33.4-22.62-44.71c-0.26-11.31,6.84-14.99,9.73-13.94
		c2.89,1.05,10.52,9.47,24.46,21.04c13.94,11.57,25.51,7.1,25.51,7.1C1693.5,522.42,1705.17,489.35,1710.48,480.19z M179.55,749.71
		c-2.22,1.37-3.32,4-3.16,6.6c0.38,6.02,1.6,19.82,4.9,25.52c4.28,7.39,18.29,27.24,32.3,20.23c14.01-7-3.89-32.3-8.17-36.97
		C201.68,761.01,188.1,744.41,179.55,749.71z M1696.3,550.09c-0.35,19.37,21.79,25.94,23.52,21.1c1.73-4.84-2.42-20.41-2.08-31.47
		c0.2-6.41-1.22-10.38-2.46-12.59c-0.8-1.44-2.6-1.97-4.06-1.21C1706.56,528.34,1696.57,535.27,1696.3,550.09z M1309.34,1312.46
		c6,22,34,74.01,46.01,98.81c11.75,24.28,18.4,31.2,29.2,36.4c10.8,5.2,26.4,2.8,32.8-4.4c6.4-7.2,8.4-12.8,4.4-21.6
		c-4-8.8-23.6-49.61-25.2-64.01c-1.6-14.4-0.4-96.81-2.4-115.61s-19.2-32-34-33.6c-14.8-1.6-22.4,2.4-31.2,8.8s-31.2,35.6-31.2,35.6
		C1289.73,1266.05,1303.34,1290.45,1309.34,1312.46z"/>
	<path d="M1426.57,964.09c0.69-1.77,0.07-3.79-1.44-4.95c-2.38-1.83-6.53-4.8-12.5-8.35c-10.04-5.97-30.39-25.51-36.9-48.57
		s0.81-39.89-1.63-54.54c-2.44-14.65-23.06-13.02-25.24-11.4c-2.17,1.63-8.95,18.99-9.77,34.73s-6.78,33.1,19.54,71.09
		c26.32,37.99,43.69,34.19,49.93,33.92C1414.32,975.78,1422.37,974.84,1426.57,964.09z"/>
	<path d="M1521.83,486.7c0,0,11.4-13.41,13.07-20.45s-2.68-10.73-9.39-13.07c-6.7-2.35-49.28-13.74-65.71-21.45
		c-16.43-7.71-53.5-23.26-67.42-28.55c-14.45-5.49-81.76-23.08-107.57-30.12c-25.81-7.04-97.89-25.81-130.74-30.17
		c-32.85-4.36-90.51-0.34-123.7,2.35c-33.19,2.68-196.78,9.39-217.9,10.73c-21.12,1.34-151.19,17.77-168.96,19.44
		c-17.77,1.68-58.33,14.42-56.65,23.13c1.68,8.72,9.39,7.38,24.47,5.7c15.09-1.68,193.58-24.99,320.2-16.96c0,0,125.2,0,181.89,3.78
		c56.69,3.78,143.62,18.9,162.05,22.21c18.43,3.31,85.51,28.35,96.85,31.65c11.34,3.31,45.83,15.59,73.7,17.95
		c27.87,2.36,61.42,25.51,68.03,26.46C1520.68,490.26,1521.83,486.7,1521.83,486.7z"/>
	<path d="M372.73,496.81c0,0-0.95-17.07,9.17-17.07c10.11,0,42.98,13.59,44.25,57.84c1.26,44.25-2.94,102.73-3.74,113.85
		s-7.55,24.23-9.14,48.47c-1.59,24.23-28.2,205-30.57,223.97s-32.71,173.52-33.66,182.52s-0.47,21.33-17.07,20.86
		s-41.72-4.27-37.93-50.25c0,0-2.84-30.82,7.11-79.17c9.96-48.36,28.92-164.04,31.76-183.95s25.13-142.7,26.07-156.92
		s12.8-105.72,14.22-125.63C374.64,511.41,372.73,496.81,372.73,496.81z"/>
	<path d="M666.62,616.68c0,0,3.95-23.28-7.91-30.31c-11.86-7.03-24.16,7.91-28.55,18.01s-3.51,33.39,12.3,34.7
		S666.62,632.06,666.62,616.68z"/>
	<path d="M610.75,688.1c1.49-3.45,4.87-5.7,8.63-5.72c5.69-0.03,14.7,2.24,18.82,15.72c6.28,20.51,0,41.85-2.93,55.66
		s-10.88,64.03-11.3,77.42c-0.42,13.39,0,41.01,12.55,38.5c12.55-2.51,28.46-38.92,32.22-51.47s14.23-53.57,15.07-60.26
		c0.84-6.7,10.23-7.07,13.8-6.28s11.88,7.52,4.75,59.39c-7.13,51.86-39.99,80.37-42.76,83.54c-2.77,3.17-24.15,26.53-36.82,24.94
		c-12.67-1.58-39.19-14.25-37.61-61.37s11.09-77.6,12.27-90.27C598.48,756.95,603.46,704.98,610.75,688.1z"/>
	<path d="M839.7,633.1c0,0,17.3-7.41,30.64-6.18c13.34,1.24,14.33,10.13,12.36,16.31c-1.98,6.18-32.12,19.03-43.74,29.16
		c-11.61,10.13-12.6,11.61-13.84,21.25c0,0-41.38,158.62-44.15,169.98c-2.77,11.36-3.88,56.52,20.5,60.4c0,0,8.31,1.66,19.95-17.73
		c0,0,14.13-17.45,29.09-52.09s19.67-64.83,20.5-72.59c0.83-7.76,2.22-21.61,4.99-23s13.3,3.88,18.84,3.32s11.08-15.24,19.39-35.74
		s14.68-42.67,37.96-62.61s40.17-19.67,50.15-19.12c9.97,0.55,46.82,1.39,44.88,64.28c-1.94,62.89-37.96,109.99-48.48,123.01
		c-10.53,13.02-25.21,28.81-34.08,33.25c-8.87,4.43-6.65,14.41,2.77,15.24c9.42,0.83,19.12,4.99,33.25-0.28
		c14.13-5.26,25.21-22.16,36.29-42.11c11.08-19.95,26.87-37.4,39.9-62.89s36.29-72.31,44.88-123.84
		c8.59-51.53,10.53-64.28,15.52-71.48c4.99-7.2,14.41-4.43,20.78,0.28c6.37,4.71,9.7,10.81,8.31,20.22s-15.24,100.02-16.62,116.09
		c-1.39,16.07-3.88,47.93,11.36,46.82s23.83-37.13,26.87-43.77c3.05-6.65,15.52-37.4,17.18-56.8c1.66-19.39,11.36-18.29,13.85-17.45
		c2.49,0.83,16.07,23.55,40.17,19.95c0,0,3.6-1.94,3.6-15.24c0-3.32,3.04-9.25,6.24-16.96c9.58-23.13,30.89-60.83,58.32-80.57
		c0,0,29.92-22.16,50.42-18.29c20.5,3.88,28.54,28.54,26.32,40.73s-3.32,41.56-41.84,88.38c0,0-22.16,24.38-57.07,44.05
		c0,0-7.76,23,27.71,21.61c35.46-1.39,56.52-19.95,75.91-52.09c19.39-32.14,27.98-67.05,28.26-73.7c0.28-6.65,8.87-3.32,16.35,0.83
		c7.48,4.16,16.9-4.16,24.38-11.36c7.48-7.2,27.71-24.93,41.83-60.4c14.13-35.46,25.77-62.34,31.58-70.65s19.67-18.01,26.87-18.01
		s13.02,11.08,12.74,14.96c-0.28,3.88-6.65,14.13-6.65,25.77c0,11.64,9.97,38.51,12.47,46.54c2.49,8.03,10.81,38.51,9.42,98.08
		c0,0,6.1,36.02-14.96,48.21c-21.06,12.19-34.91,16.9-54.03,14.13c-19.12-2.77-29.92-7.76-32.42-26.87
		c-2.49-19.12,3.05-18.84,9.97-18.01c6.93,0.83,18.29,12.47,28.81,9.97c10.53-2.49,18.56-7.2,19.12-33.8
		c0.55-26.6-7.48-97.8-15.24-99.74c0,0-8.31,6.1-24.38,46.82c-16.07,40.73-39.9,105.56-41.56,112.76
		c-1.66,7.2-11.64,36.85-25.77,34.63s-15.24-11.08-11.36-15.24c3.88-4.16,16.9-28.54,24.1-46.82c7.2-18.29,9.97-22.16,7.76-24.66
		s-17.73-7.76-23.83,3.6c-6.1,11.36-4.99,24.66-21.61,51.81c-6.98,11.4-17.17,28.67-32.21,45.07
		c-20.78,22.65-48.67,43.47-70.85,43.31c-38.23-0.28-53.47-25.77-58.74-37.4c-5.26-11.64-6.1-19.67-13.58-26.04
		c-7.48-6.37-25.49-6.93-28.26-6.1s-5.54,21.06-9.97,33.52s-20.22,39.9-38.23,55.69c-18.01,15.79-21.89,19.67-34.35,18.29
		s-21.33-10.53-21.06-17.45c0.19-4.73,0.89-13.46-1.23-18.35c-1.25-2.87-5.38-2.72-6.48,0.21c-0.82,2.19-2.12,5.62-4.2,10.93
		c-4.99,12.74-42.11,61.78-62.06,80.9c0,0-22.44,21.61-31.31,26.87c-8.87,5.26-9.42,14.41-9.42,18.56s5.54,20.5-16.35,62.89
		c-21.89,42.39-55.69,54.58-69.54,54.03s-20.78-18.84-13.58-42.11c7.2-23.27,12.74-42.94,40.73-69.82c0,0,4.71-4.99-2.77-7.2
		c-7.48-2.22-23.83-4.43-30.48-20.5s-6.93-28.81,0.28-36.02c7.2-7.2,36.02-23.27,65.11-62.06c29.09-38.79,31.58-90.04,31.31-95.86
		c-0.28-5.82-4.99-17.73-20.22-18.84s-45.71,21.61-51.53,47.93s-15.24,58.18-16.07,64s-9.97,11.36-14.68,11.08
		s-16.9-2.22-17.45,4.71s3.05,66.22-30.48,114.15c0,0-30.58,50.07-66.73,61.53c-36.15,11.46-55.98,4.41-61.27-9.7
		c-5.29-14.11-17.19-63.04-11.9-110.2s25.57-114.61,33.5-137.09c0,0,5.73-7.93-6.61-13.67c-12.34-5.73-40.55-15.43-43.2-19.84
		c-2.64-4.41-0.44-8.38,10.14-11.46c10.58-3.09,39.23-12.78,46.73-18.07c7.49-5.29,20.72-15.87,25.57-46.73
		c4.85-30.86-5.73-43.64-9.26-45.84c-3.53-2.2-2.64-11.9,7.49-11.9s40.4,13.03,44.52,41C835.93,624.78,832.46,633.92,839.7,633.1z
		 M933.68,995.67c0,0,18.84-0.58,33.04-24.34c0,0,10.43-16.23,8.98-28.98c0,0-11.59-0.87-18.55,4.06
		C950.2,951.33,931.65,976.54,933.68,995.67z M1301.12,664.09c0,0,21.68,0.4,53.39-34.92c31.71-35.33,24.09-66.64,20.07-69.85
		c-4.01-3.21-14.85-5.22-24.09,3.21s-23.28,14.45-36.93,39.34c-13.65,24.89-12.85,47.37-14.05,50.18
		C1298.31,654.85,1297.51,663.68,1301.12,664.09z"/>
	<path d="M1168.27,481.76c0,0,13.07-1.11,16.4,0.83s9.17,8.34,7.51,25.3c-1.67,16.96-7.23,25.58-22.52,25.86
		c-15.29,0.28-17.18-13.38-14.46-29.19C1157.99,488.43,1163.27,482.04,1168.27,481.76z"/>
	<path d="M163.89,1365.25c-3.1-3.66-2.02-6.99-0.31-10.56c3.29-6.87,4.04-17.24,2.95-24.69c-1.18-8.09-3.86-10.83-9.35-14.1
		s-9.11-3.15-14.95-4.21c-5.84-1.05-8.53-3.15-14.6-3.27c-6.07-0.12-11.1-0.58-22.31-0.93c-11.21-0.35-15.42-1.64-25.82-1.64
		s-11.8,0.7-18.11,1.05c-6.31,0.35-11.87,1.75-11.87,8.29s1.12,22.08,1.47,28.27c0.35,6.19,0,28.97,0,39.51
		c0,10.54-0.7,12.36-1.4,19.37c-0.7,7.01,3.86,6.43,10.51,6.43c6.66,0,35.63,1.29,44.98,1.29c3.51,0,12.5-0.23,23.25-1.05
		c10.75-0.82,16.47-2.57,25.47-8.41c9-5.84,14.75-11.82,14.75-19.65S165.6,1367.27,163.89,1365.25z M100.7,1321.79
		c4.79,0.21,11.62,1.82,13.49,7.24c1.88,5.42,2.6,5.73,2.6,11.51s-3.28,9.9-6.56,11.36c-3.28,1.46-6.04,1.56-8.65,1.56
		c-2.6,0-5.31-1.47-5.31-7.97c0-8.91,0.73-10.99,0.73-16.98C97,1322.52,95.91,1321.58,100.7,1321.79z M113.13,1391.96
		c-3.27,0.05-7.3,1.21-10.32,2.11c-3.02,0.91-7.7-0.55-7.7-4.68c0-4.13,0.65-10.17,0.86-12.68c0.2-2.52,2.42-5.08,8.45-5.08
		c8.2,0,14.69,8.71,14.69,13.69C119.12,1390.3,116.4,1391.91,113.13,1391.96z"/>
	<path d="M574.61,1363.3c-3.1-3.66-2.02-6.99-0.31-10.56c3.29-6.87,4.04-17.24,2.95-24.69c-1.18-8.09-3.86-10.83-9.35-14.1
		c-5.49-3.27-9.11-3.15-14.95-4.21c-5.84-1.05-8.53-3.15-14.6-3.27c-6.07-0.12-11.1-0.58-22.31-0.93
		c-11.21-0.35-15.42-1.64-25.82-1.64c-10.4,0-11.8,0.7-18.11,1.05c-6.31,0.35-11.87,1.75-11.87,8.29s1.12,22.08,1.47,28.27
		c0.35,6.19,0,28.97,0,39.51c0,10.54-0.7,12.36-1.4,19.37c-0.7,7.01,3.86,6.43,10.51,6.43c6.66,0,35.63,1.29,44.98,1.29
		c3.51,0,12.5-0.23,23.25-1.05c10.75-0.82,16.47-2.57,25.47-8.41c9-5.84,14.75-11.82,14.75-19.65
		C579.27,1371.16,576.32,1365.32,574.61,1363.3z M511.42,1319.84c4.79,0.21,11.62,1.82,13.49,7.24c1.88,5.42,2.6,5.73,2.6,11.51
		s-3.28,9.9-6.56,11.36c-3.28,1.46-6.04,1.56-8.65,1.56c-2.6,0-5.31-1.47-5.31-7.97c0-8.91,0.73-10.99,0.73-16.98
		C507.72,1320.57,506.63,1319.63,511.42,1319.84z M523.85,1390.01c-3.27,0.05-7.3,1.21-10.32,2.11c-3.02,0.91-7.7-0.55-7.7-4.68
		s0.65-10.17,0.86-12.68c0.2-2.52,2.42-5.08,8.45-5.08c8.2,0,14.69,8.71,14.69,13.69C529.84,1388.35,527.12,1389.96,523.85,1390.01z
		"/>
	<path d="M248.21,1389.42c-0.97-0.14-1.94-0.19-2.92-0.16c-4.67,0.19-7.8,1.13-11.24,1.24c-3.82,0.13-5.61-1.02-6.62,3.44
		c-1.02,4.46-0.76,15.8-10.45,15.8c-9.68,0-22.04-1.4-28.79-1.66c-6.75-0.25-11.59,1.78-8.66-7.9s4.46-16.18,6.5-25.22
		s9.55-26.63,10.7-38.09c1.15-11.47-1.66-24.33,7.39-26.63c9.05-2.29,22.55-2.04,40.26-2.55c17.71-0.51,21.91-1.4,30.19-0.76
		c8.28,0.64,11.72,0.89,13.5,8.79c1.78,7.9,4.84,23.19,12.61,47.26c7.77,24.08,10.83,32.61,10.83,37.33c0,4.71-3.44,6.62-9.68,8.54
		c-6.24,1.91-10.19,1.26-12.87,1.2s-7.26,0.33-9.55,0.96c-2.29,0.64-2.29,1.91-5.86,0c-3.57-1.91-2.55-2.29-5.22-2.68
		s-3.44-1.02-4.59-7.01c-1.15-5.99-1.27-9.55-6.37-10.45C253.8,1390.27,250.1,1389.7,248.21,1389.42z M252.07,1369.46
		c2.28-0.49,4.07-1.38,2.04-4.64s-6.03-14.5-7.01-20.45s-4.07-13.28-4.07-13.28s-1.87,4.32-4.48,13.04
		c-2.61,8.72-3.91,14.5-5.62,20.61c-1.71,6.11,1.3,5.7,7.98,5.7C245.96,1370.44,249.79,1369.95,252.07,1369.46z"/>
	<path d="M396.86,1336.79c0,4.28-0.78,12.35-2.71,16.57c-1.93,4.22-8.26,7.71-11.57,7.71s-5.06,0.66-6.15-8.01
		c-1.08-8.68-0.84-22.54-2.47-27.66s0.66-6.69,5.24-6.33S396.86,1324.14,396.86,1336.79z M340.89,1304.01
		c-9.07-0.93-11.74-0.12-13.08,5.66c-1.34,5.79-0.45,29.1-0.83,39.4c-0.39,10.29,1.34,41.23,1.61,45.52
		c0.28,4.28-1.22,8.85,3.73,10.46c4.95,1.61,16.97,4.28,28.49,1.96c11.52-2.32,13.13-6.47,13.47-10.14
		c0.33-3.67-0.11-5.79,1.11-9.68s5.17-3.62,6.96,1.28c1.78,4.9,6.57,8.62,10.63,13.91c4.06,5.29,7.29,4.84,10.68,3.56
		c3.39-1.28,9.35-0.39,11.24,0.17c1.89,0.56,5.68,1.72,11.74,0s8.85-3.78,8.29-6.01c-0.56-2.23-5.17-8.79-13.35-15.58
		c-8.18-6.79-3.45-8.35,0.28-10.52c3.73-2.17,10.41-4.4,15.86-12.07c5.45-7.68,5.51-15.58,5.51-26.43
		c0-10.85-6.15-18.92-15.01-25.36c-8.86-6.44-12.79-4.93-23.11-4.93c-10.32,0-14.48-1.19-24.98-1.19
		C372.29,1304.01,349.96,1304.94,340.89,1304.01z"/>
	<path d="M663.65,1304.33c12.3,0,14.07,0.58,20.11,0.79s8.86-0.63,8.34,5.21s0.94,10-2.81,11.36c-3.75,1.35-18.86,3.02-31.88,3.44
		c-13.02,0.42-14.69,0.94-15.53,5c-0.83,4.06-1.04,14.07,1.04,15.73c2.08,1.67,3.65,1.56,11.04,0.73c7.4-0.83,11.15,0.1,11.46,6.46
		c0.31,6.36,1.35,9.9-4.27,10.21c-5.63,0.31-13.23,0.63-16.46,0.94c-3.23,0.31-4.27-0.52-4.79,5.11s-1.04,14.28,3.13,16.46
		s8.96,1.04,18.96,1.15c10,0.1,18.42,1.3,22.48,1.89c4.06,0.59,5.86,2.62,5.86,6.25s-0.9,12.5-7.03,13.17
		c-6.13,0.66-18.07,1.06-29.49,0.31c-11.41-0.75-14.05-0.89-16.54-1.48c-2.49-0.59-3.37,0.73-14.49,0.73
		c-11.12,0-8.98-0.91-16.38-0.84c-7.4,0.08-13.42-4.27-13.42-10.68c0-6.41,2.06-8.47,0.76-15.64s0.53-25.17,1.07-34.78
		s0.53-26.54,0.53-32.8s3.59-7.55,16.4-7.78C625.24,1305.12,647.07,1304.33,663.65,1304.33z"/>
	<path d="M1039.97,1303.58c12.3,0,14.07,0.58,20.11,0.79c6.04,0.21,8.86-0.63,8.34,5.21c-0.52,5.84,0.94,10-2.81,11.36
		c-3.75,1.35-18.86,3.02-31.88,3.44c-13.02,0.42-14.69,0.94-15.53,5c-0.83,4.06-1.04,14.07,1.04,15.73
		c2.08,1.67,3.65,1.56,11.04,0.73c7.4-0.83,11.15,0.1,11.46,6.46s1.35,9.9-4.27,10.21c-5.63,0.31-13.23,0.63-16.46,0.94
		c-3.23,0.31-4.27-0.52-4.79,5.11c-0.52,5.63-1.04,14.28,3.13,16.46c4.17,2.19,8.96,1.04,18.96,1.15c10,0.1,18.42,1.3,22.48,1.89
		c4.06,0.59,5.86,2.62,5.86,6.25c0,3.63-0.9,12.5-7.03,13.17c-6.13,0.66-18.07,1.06-29.49,0.31c-11.41-0.75-14-1.21-16.54-1.48
		c-2.34-0.25-3.37,0.73-14.49,0.73c-11.12,0-8.98-0.91-16.38-0.84c-7.4,0.08-13.42-4.27-13.42-10.68c0-6.41,2.06-8.47,0.76-15.64
		s0.53-25.17,1.07-34.78c0.53-9.61,0.53-26.54,0.53-32.8c0-6.25,3.59-7.55,16.4-7.78
		C1001.57,1304.37,1023.39,1303.58,1039.97,1303.58z"/>
	<path d="M751.44,1361.9c0-14.5-0.11-25.07,3.6-32.92c3.71-7.85,7.63-11.23,10.03-6.54c2.4,4.69,5.78,13.84,7.63,18.31
		c1.85,4.47,5.34,7.19,17,7.63c11.66,0.44,22.13,0.87,25.83-2.07c3.71-2.94,1.64-13.73-1.63-17.98
		c-3.27-4.25-10.35-16.24-16.68-19.84c-6.32-3.6-17.88-6.65-34.77-6.65s-36.51,3.82-44.25,12.1c-7.74,8.28-15.59,24.74-15.59,43.93
		s11.66,36.84,17.77,41.64c6.1,4.8,12.86,7.96,26.6,7.96s35.53-1.09,46-4.69c10.46-3.6,23.98-12.86,23.98-24.52
		c0-6.1-7.19-8.18-21.69-8.18s-19.96-1.25-23.77,5.58c-3.81,6.83-5.9,15.39-9.06,15.39C756.24,1391.04,751.44,1377.99,751.44,1361.9
		z"/>
	<path d="M835.03,1316.88c0-4.06,2.1-7.99,12.9-7.92c10.81,0.07,12.7,1.24,20.24,1.05c7.53-0.2,11.66-2.29,12.05,5.24
		c0.39,7.53,2.82,29.47,4.45,44.47s4.32,27.77,10.28,27.77c5.96,0,10.74-21.09,11.72-30.52c0.98-9.43,1.57-21.22,1.57-29.99
		s-3.27-13.23,2.75-16.24c6.02-3.01,20.43-3.01,28.16-2.62c7.73,0.39,11.72,1.96,11.72,12.9s0.79,29.14-1.51,45.12
		c-2.29,15.98-4.78,22.46-14.41,28.95c-9.63,6.48-19.65,9.63-24.43,10.35c-4.78,0.72-11.2,1.64-20.24,0.65s-12.9-0.92-20.24-0.92
		c-7.33,0-11.53,2.16-18.8-6.09c-7.27-8.25-8.32-11.72-11.46-25.87c-3.14-14.15-4.78-23.18-4.78-32.35
		S835.03,1327.89,835.03,1316.88z"/>
	<path d="M932.8,1568.1c15.51,0,44.23-1.15,62.62-1.38c18.38-0.23,21.83,0,21.83,7.58c0,7.58-2.87,10.11-9.08,10.23
		c-6.2,0.11-30.91,0.92-36.99,1.03c-6.09,0.11-7.01,4.83-7.01,8.27s2.87,8.04,13.21,8.16c10.34,0.11,19.19,0.11,19.19,8.39
		c0,8.27-2.64,9.65-10.68,9.65c-8.04,0-19.65-1.72-19.65,6.43c0,8.16,1.03,11.72,9.77,11.95c8.73,0.23,22.52,0.57,29.07,0.92
		c6.55,0.34,13.56,1.38,13.56,9.19s-4.71,9.31-19.3,9.31s-33.89-0.46-50.67-1.49c-16.77-1.03-28.61,0.57-28.61-9.08
		s0.23-24.7-0.23-40.79c-0.46-16.08,2.64-30.91,3.1-33.55C923.37,1570.28,925.1,1568.1,932.8,1568.1z"/>
	<path d="M893.27,1567.87c9.65,0,12.75,0.11,12.75,14.36c0,14.25-0.23,29.64-0.57,45.27c-0.34,15.63,0.8,20.57-3.45,23.78
		s-8.73,2.99-20.68,3.91c-11.95,0.92-15.74-0.11-18.84-2.87c-3.1-2.76-15.97-21.14-22.06-27.34c-6.09-6.2-7.93-5.63-8.27-1.38
		s0.69,19.88-1.03,23.9c-1.72,4.02-3.22,5.06-13.44,6.43c-10.23,1.38-19.3,0.92-23.55,1.03s-6.66,1.38-7.01-10.23
		s1.03-65.83,0.92-70.31c-0.11-4.48,1.26-6.09,10.34-7.35c9.08-1.26,8.04-1.38,19.76-1.38c11.72,0,15.51,3.79,20.22,9.19
		c4.71,5.4,6.43,8.85,10,13.44c3.56,4.6,8.5,8.62,10.68,8.62s3.45-5.97,3.33-12.06c-0.11-6.09-0.69-13.79,6.55-14.71
		C876.15,1569.25,884.08,1567.87,893.27,1567.87z"/>
	<path d="M748.21,1564.4c7.77,0,15.54,0.55,17.18,4.39c1.65,3.84,0.64,6.12,0,12.89c-0.64,6.76,1.37,22.3,1.37,37.2
		c0,14.9,0.18,19.83-0.73,27.51s0.18,8.48-12.06,9.31c-12.25,0.83-21.02,0.81-26.87,0c-5.85-0.81-7.13-3.28-7.22-13.79
		c-0.09-10.51,1.46-24.22,1.46-40.31s0.82-26.14,0.64-31.26s4.57-5.12,10.33-5.21C738.06,1565.04,740.44,1564.4,748.21,1564.4z"/>
	<path d="M686.13,1565.24c7.96,0,16.16-0.75,16.16,5.58s-0.31,8.46-11.34,10.52c-11.03,2.07-21.17,2.44-28.32,2.44
		s-11.59,1-11.59,6.52c0,5.51,0,12.15,9.58,13.22s18.79,0.25,18.79,9.33s-7.45,6.77-13.59,6.77c-6.14,0-10.27,0.19-13.78,4.51
		c-3.51,4.32-1.88,15.79-1.88,22.24s-2,9.08-12.4,10.15c-10.4,1.07-19.73,0.31-23.55-2.19c-3.82-2.51-3.38-4.76-4.2-16.16
		c-0.81-11.4-1.69-37.96-1.32-51.12c0.38-13.16-2.19-21.11,7.02-20.86c9.21,0.25,33.26,0.06,46.36-0.06
		C675.17,1565.99,679,1565.24,686.13,1565.24z"/>
	<path d="M1193.39,1562.97c7.96,0,16.16-0.75,16.16,5.58s-0.31,8.46-11.34,10.52s-21.17,2.44-28.32,2.44c-7.14,0-11.59,1-11.59,6.52
		c0,5.51,0,12.15,9.58,13.22c9.58,1.06,18.79,0.25,18.79,9.33s-7.45,6.77-13.59,6.77s-10.27,0.19-13.78,4.51
		c-3.51,4.32-1.88,15.79-1.88,22.24c0,6.45-2,9.08-12.4,10.15c-10.4,1.06-19.73,0.31-23.55-2.19c-3.82-2.51-3.38-4.76-4.2-16.16
		s-1.69-37.96-1.32-51.12s-2.19-21.11,7.02-20.86c9.21,0.25,33.26,0.06,46.36-0.06C1182.43,1563.72,1186.26,1562.97,1193.39,1562.97
		z"/>
	<path d="M1263.43,1609.89c0-13.34,0.96-23.08,0.96-25.84s3.12-4.57,7.81-5.77c4.69-1.2,8.05,1.32,9.74,9.74
		c1.68,8.41,2.4,14.9,2.4,29.08c0,14.18-3.12,19.59-5.77,23.2s-5.29,4.69-7.93,0.6C1265.23,1634.65,1263.43,1623.23,1263.43,1609.89
		z M1235.54,1570.95c-7.57,7.45-18.27,27.04-18.27,39.81s5.65,28.94,14.06,36.63c8.41,7.69,17.31,11.66,30.53,11.66
		c13.22,0,16.71-0.84,27.64-1.56c10.94-0.72,15.5-3.61,23.44-12.14c7.93-8.53,14.42-18.75,14.42-39.54s-8.41-31.85-18.63-36.42
		s-21.39-8.77-35.94-8.77C1257.78,1560.61,1243.12,1563.5,1235.54,1570.95z"/>
	<path d="M1388.07,1609.42c0-13.34,0.96-20.31,0.96-23.08s4.58-6.98,9.27-8.18c4.69-1.2,6.59,0.97,8.28,9.38
		c1.68,8.41,2.4,14.9,2.4,29.08c0,14.18-3.12,19.59-5.77,23.2c-2.64,3.61-5.98,3.84-8.62-0.25
		C1389.93,1631.97,1388.07,1622.76,1388.07,1609.42z M1360.18,1570.47c-7.57,7.45-18.27,27.04-18.27,39.81s5.65,28.94,14.06,36.63
		c8.41,7.69,17.31,11.66,30.53,11.66s16.71-0.84,27.64-1.56c10.94-0.72,15.5-3.61,23.44-12.14s16.01-19.2,16.01-39.99
		c0-20.79-10.63-30.2-20.22-35.97c-9.92-5.97-14.38-9.11-35.94-8.77C1382.42,1560.38,1367.76,1563.02,1360.18,1570.47z"/>
	<path d="M1512.74,1584.69c0-5.12-0.45-8.64,4.32-9.1c4.78-0.45,16.6,10.8,16.6,32.86s-5.34,26.61-9.44,29.22
		c-4.09,2.62-6.59,4.99-9.55,1.71c-2.26-2.5-2.5-6.59-1.25-11.71C1514.67,1622.55,1512.74,1591.53,1512.74,1584.69z
		 M1537.41,1650.97c10.57,0,12.62-0.68,18.19-3.07c5.57-2.39,16.15-10.92,21.04-25.7c4.89-14.78-0.23-29.34-6.82-42.07
		c-6.59-12.73-15.58-14.44-33.31-16.6c-17.74-2.16-49.23-0.57-57.08-0.57c-7.85,0-8.76,2.5-8.76,19.9c0,17.4-1.36,39.34-1.36,52.87
		s6.71,14.9,13.53,15.46s12.73,0,26.15,0C1517.16,1651.2,1526.83,1650.97,1537.41,1650.97z"/>
	<path d="M1654.18,1563.31c18.99,0,29.34,1.36,37.64,8.64c8.3,7.28,9.32,15.35,3.64,19.44c-5.69,4.09-22.74,2.5-30.24,2.5
		s-7.73-7.5-11.03-11.03s-9.55-4.78-12.96-4.66c-3.41,0.11-10.92,6.94-3.64,14.21s14.44,12.17,21.38,13.3
		c6.94,1.14,17.28,2.16,29.68,11.14c12.39,8.98,8.64,21.26,1.48,24.45c-7.16,3.18-7.96,6.59-26.95,7.5
		c-18.99,0.91-44.57,0-52.19-0.8c-7.62-0.8-19.56-10.69-19.56-18.42c0-7.73,5.12-5.46,18.76-5.12c13.64,0.34,21.38,0.91,24.79,6.25
		c3.41,5.34,5.34,6.48,13.3,6.48c7.96,0,10.69-8.07,9.55-11.26c-1.14-3.18-3.64-8.98-11.48-11.26c-7.85-2.27-25.7-6.82-34.68-10.35
		s-16.26-8.19-16.26-20.58c0-12.39,9.44-16.6,18.31-17.74C1622.57,1564.9,1643.38,1563.31,1654.18,1563.31z"/>
	<g>
		<path d="M1043.48,1469.47c-1.7-2.97-1.86-4.08-5.9-7.92c-4.04-3.84-12.04-6.34-17.07-5.42c-5.03,0.91-7.48,1.31-7.48,7.29
			c0,5.98-0.04,20.27-0.04,27.01s4.75,7.84,12.24,7.84c6.3,0,11.92-2.34,16.2-7.84c4.28-5.5,4.91-8.59,4.91-12.31
			S1045.18,1472.44,1043.48,1469.47z M1032.63,1484.84c-1.82,2.47-3.09,3.74-6.38,3.78c-3.29,0.04-3.05-1.53-3.05-3.96
			s-0.2-6.18-0.2-6.18c0-4.87-1.23-10.87,2.18-10.87c3.41,0,8.51,4,8.51,7.71C1033.7,1479.02,1034.45,1482.37,1032.63,1484.84z"/>
		<path d="M956.21,1468.98c-1.68-5.23-4.3-7.58-8.12-7.58c-10.74,0-10.47,4.84-12.46,11.09c-1.99,6.25-6.13,20.5-7.22,25.7
			c-1.09,5.19,3.32,5.23,6.83,4.44c3.51-0.79,3.78-2.97,5.97-7.78c0.9-1.99,2.85-3.24,5.05-3.07c3.58,0.28,6.23,4.04,7.33,7.14
			c1.05,2.97,4.11,2.17,7.47,1.31c5.91-1.51,3.14-9.32,2.02-13.1C961.13,1480.58,957.89,1474.22,956.21,1468.98z M948.91,1481.4
			c-1.76,0.78-3.24,1.05-4.8,0.51c-1.56-0.55-2.42-2.49-1.76-4.72c0.66-2.23,1.41-5.01,4.61-5.01c2.85,0,3.28,2.27,3.32,4.65
			C950.31,1479.21,950.66,1480.62,948.91,1481.4z"/>
		<path d="M1000.55,1457.05c-3.8,0-4.31,1.97-4.63,4.72c-0.32,2.75,0.29,5.4,0.01,10.12c-0.27,4.72-2.37,6.07-4.32,3.99
			c-1.91-2.04-3.41-4.1-7.49-8.27c-4.08-4.17-4.72-7.43-9.11-7.07c-4.4,0.37-4.51,1.37-4.51,6.77c0,5.4,1.42,19.97,1.83,27.11
			c0.41,7.15,1.05,7.96,4.17,7.96c3.11,0,3.78-0.4,4.93-2.32c1.15-1.92,0.75-7.62,1.3-10.41c0.55-2.79,3.07-3.83,4.95-2.23
			c1.88,1.6,5.18,7.88,6.69,10.52c1.51,2.64,5.77,1.53,8.02-0.17c2.24-1.69,2.34-7.56,2.34-14.66s0.37-13.37,0.55-18.23
			C1005.45,1460.02,1005.31,1457.05,1000.55,1457.05z"/>
	</g>
	<path d="M922.42,1526.95c-4.42,0-4.48-0.46-6.23-1.67c-1.75-1.22-2.58-4.33,3.34-4.79s43.61-5.93,60.47-8.36
		c16.86-2.43,54.39-6.53,63.89-6.69c1.78-0.03,4.89-1.66,6.11,0.2c1.28,1.95-2.8,2.63-3.9,2.8c-1.73,0.27-1.24,0.32-2.96,0.64
		c-7.96,1.48-15.91,2.95-23.9,4.28c-3.35,0.56-6.7,1.09-10.07,1.56C992.84,1517.22,932.29,1526.95,922.42,1526.95z"/>
</g>
</svg>
